ar-font-test-1.ufo
<glyph name="exclam" format="2">
	<unicode hex="0021"/>
	<advance width="244"/>
	<outline>
		<contour>
			<point x="15" y="-5" type="line"/>
			<point x="229" y="-5" type="line"/>
			<point x="229" y="732" type="line"/>
			<point x="15" y="732" type="line"/>
		</contour>
		<contour>
			<point x="15" y="-5" type="line"/>
			<point x="229" y="-5" type="line"/>
			<point x="229" y="732" type="line"/>
			<point x="15" y="732" type="line"/>
		</contour>
	</outline>
</glyph>
<glyph name="parenleft" format="2">
	<unicode hex="0028"/>
	<advance width="344"/>
	<outline>
		<contour>
			<point x="40" y="-130" type="line"/>
			<point x="329" y="-130" type="line"/>
			<point x="329" y="755" type="line"/>
			<point x="40" y="755" type="line"/>
		</contour>
	</outline>
</glyph>
<glyph name="asterisk" format="2">
	<unicode hex="002A"/>
	<advance width="379"/>
	<outline>
		<contour>
			<point x="25" y="420" type="line"/>
			<point x="354" y="420" type="line"/>
			<point x="354" y="732" type="line"/>
			<point x="25" y="732" type="line"/>
		</contour>
	</outline>
</glyph>
<glyph name="plus" format="2">
	<unicode hex="002B"/>
	<advance width="532"/>
	<outline>
		<contour>
			<point x="45" y="88" type="line"/>
			<point x="487" y="88" type="line"/>
			<point x="487" y="528" type="line"/>
			<point x="45" y="528" type="line"/>
		</contour>
		<contour>
			<point x="45" y="88" type="line"/>
			<point x="487" y="88" type="line"/>
			<point x="487" y="528" type="line"/>
			<point x="45" y="528" type="line"/>
		</contour>
	</outline>
</glyph>
<glyph name="comma" format="2">
	<unicode hex="002C"/>
	<advance width="264"/>
	<outline>
		<contour>
			<point x="10" y="-145" type="line"/>
			<point x="221" y="-145" type="line"/>
			<point x="221" y="172" type="line"/>
			<point x="10" y="172" type="line"/>
		</contour>
	</outline>
</glyph>
<glyph name="hyphen" format="2">
	<unicode hex="002D"/>
	<advance width="261"/>
	<outline>
		<contour>
			<point x="20" y="229" type="line"/>
			<point x="241" y="229" type="line"/>
			<point x="241" y="339" type="line"/>
			<point x="20" y="339" type="line"/>
		</contour>
	</outline>
</glyph>
<glyph name="period" format="2">
	<unicode hex="002E"/>
	<advance width="247"/>
	<outline>
		<contour>
			<point x="31" y="-5" type="line"/>
			<point x="216" y="-5" type="line"/>
			<point x="216" y="180" type="line"/>
			<point x="31" y="180" type="line"/>
		</contour>
	</outline>
</glyph>
<glyph name="one" format="2">
	<unicode hex="0031"/>
	<advance width="395"/>
	<outline>
		<contour>
			<point x="10" y="0" type="line"/>
			<point x="360" y="0" type="line"/>
			<point x="360" y="752" type="line"/>
			<point x="10" y="752" type="line"/>
		</contour>
	</outline>
</glyph>
<glyph name="two" format="2">
	<unicode hex="0032"/>
	<advance width="576"/>
	<outline>
		<contour>
			<point x="0" y="0" type="line"/>
			<point x="556" y="0" type="line"/>
			<point x="556" y="747" type="line"/>
			<point x="0" y="747" type="line"/>
		</contour>
	</outline>
</glyph>
<glyph name="three" format="2">
	<unicode hex="0033"/>
	<advance width="580"/>
	<outline>
		<contour>
			<point x="15" y="-15" type="line"/>
			<point x="565" y="-15" type="line"/>
			<point x="565" y="732" type="line"/>
			<point x="15" y="732" type="line"/>
		</contour>
	</outline>
</glyph>
<glyph name="four" format="2">
	<unicode hex="0034"/>
	<advance width="620"/>
	<outline>
		<contour>
			<point x="-5" y="0" type="line"/>
			<point x="605" y="0" type="line"/>
			<point x="605" y="732" type="line"/>
			<point x="-5" y="732" type="line"/>
		</contour>
	</outline>
</glyph>
<glyph name="five" format="2">
	<unicode hex="0035"/>
	<advance width="549"/>
	<outline>
		<contour>
			<point x="10" y="-15" type="line"/>
			<point x="529" y="-15" type="line"/>
			<point x="529" y="732" type="line"/>
			<point x="10" y="732" type="line"/>
		</contour>
	</outline>
</glyph>
<glyph name="six" format="2">
	<unicode hex="0036"/>
	<advance width="646"/>
	<outline>
		<contour>
			<point x="25" y="-15" type="line"/>
			<point x="626" y="-15" type="line"/>
			<point x="626" y="747" type="line"/>
			<point x="25" y="747" type="line"/>
		</contour>
		<contour>
			<point x="25" y="-15" type="line"/>
			<point x="626" y="-15" type="line"/>
			<point x="626" y="747" type="line"/>
			<point x="25" y="747" type="line"/>
		</contour>
	</outline>
</glyph>
<glyph name="seven" format="2">
	<unicode hex="0037"/>
	<advance width="518"/>
	<outline>
		<contour>
			<point x="15" y="0" type="line"/>
			<point x="543" y="0" type="line"/>
			<point x="543" y="732" type="line"/>
			<point x="15" y="732" type="line"/>
		</contour>
	</outline>
</glyph>
<glyph name="eight" format="2">
	<unicode hex="0038"/>
	<advance width="617"/>
	<outline>
		<contour>
			<point x="10" y="-15" type="line"/>
			<point x="607" y="-15" type="line"/>
			<point x="607" y="747" type="line"/>
			<point x="10" y="747" type="line"/>
		</contour>
		<contour>
			<point x="10" y="-15" type="line"/>
			<point x="607" y="-15" type="line"/>
			<point x="607" y="747" type="line"/>
			<point x="10" y="747" type="line"/>
		</contour>
		<contour>
			<point x="10" y="-15" type="line"/>
			<point x="607" y="-15" type="line"/>
			<point x="607" y="747" type="line"/>
			<point x="10" y="747" type="line"/>
		</contour>
	</outline>
</glyph>
<glyph name="nine" format="2">
	<unicode hex="0039"/>
	<advance width="646"/>
	<outline>
		<contour>
			<point x="20" y="-15" type="line"/>
			<point x="621" y="-15" type="line"/>
			<point x="621" y="747" type="line"/>
			<point x="20" y="747" type="line"/>
		</contour>
		<contour>
			<point x="20" y="-15" type="line"/>
			<point x="621" y="-15" type="line"/>
			<point x="621" y="747" type="line"/>
			<point x="20" y="747" type="line"/>
		</contour>
	</outline>
</glyph>
<glyph name="semicolon" format="2">
	<unicode hex="003B"/>
	<advance width="269"/>
	<outline>
		<contour>
			<point x="10" y="-145" type="line"/>
			<point x="226" y="-145" type="line"/>
			<point x="226" y="493" type="line"/>
			<point x="10" y="493" type="line"/>
		</contour>
		<contour>
			<point x="10" y="-145" type="line"/>
			<point x="226" y="-145" type="line"/>
			<point x="226" y="493" type="line"/>
			<point x="10" y="493" type="line"/>
		</contour>
		<component base="comma"/>
	</outline>
</glyph>
<glyph name="less" format="2">
	<unicode hex="003C"/>
	<advance width="530"/>
	<outline>
		<contour>
			<point x="45" y="85" type="line"/>
			<point x="475" y="85" type="line"/>
			<point x="475" y="527" type="line"/>
			<point x="45" y="527" type="line"/>
		</contour>
	</outline>
</glyph>
<glyph name="equal" format="2">
	<unicode hex="003D"/>
	<advance width="532"/>
	<outline>
		<contour>
			<point x="45" y="233" type="line"/>
			<point x="487" y="233" type="line"/>
			<point x="487" y="403" type="line"/>
			<point x="45" y="403" type="line"/>
		</contour>
		<contour>
			<point x="45" y="233" type="line"/>
			<point x="487" y="233" type="line"/>
			<point x="487" y="403" type="line"/>
			<point x="45" y="403" type="line"/>
		</contour>
	</outline>
</glyph>
<glyph name="greater" format="2">
	<unicode hex="003E"/>
	<advance width="530"/>
	<outline>
		<contour>
			<point x="55" y="85" type="line"/>
			<point x="485" y="85" type="line"/>
			<point x="485" y="527" type="line"/>
			<point x="55" y="527" type="line"/>
		</contour>
	</outline>
</glyph>
<glyph name="question" format="2">
	<unicode hex="003F"/>
	<advance width="436"/>
	<outline>
		<contour>
			<point x="30" y="-5" type="line"/>
			<point x="431" y="-5" type="line"/>
			<point x="431" y="747" type="line"/>
			<point x="30" y="747" type="line"/>
		</contour>
		<contour>
			<point x="30" y="-5" type="line"/>
			<point x="431" y="-5" type="line"/>
			<point x="431" y="747" type="line"/>
			<point x="30" y="747" type="line"/>
		</contour>
	</outline>
</glyph>
<glyph name="A" format="2">
	<unicode hex="0041"/>
	<advance width="739"/>
	<outline>
		<contour>
			<point x="5" y="0" type="line"/>
			<point x="734" y="0" type="line"/>
			<point x="734" y="732" type="line"/>
			<point x="5" y="732" type="line"/>
		</contour>
		<contour>
			<point x="5" y="0" type="line"/>
			<point x="734" y="0" type="line"/>
			<point x="734" y="732" type="line"/>
			<point x="5" y="732" type="line"/>
		</contour>
		<contour>
			<point x="5" y="0" type="line"/>
			<point x="734" y="0" type="line"/>
			<point x="734" y="732" type="line"/>
			<point x="5" y="732" type="line"/>
		</contour>
	</outline>
</glyph>
<glyph name="C" format="2">
	<unicode hex="0043"/>
	<advance width="776"/>
	<outline>
		<contour>
			<point x="28" y="-15" type="line"/>
			<point x="736" y="-15" type="line"/>
			<point x="736" y="747" type="line"/>
			<point x="28" y="747" type="line"/>
		</contour>
	</outline>
</glyph>
<glyph name="D" format="2">
	<unicode hex="0044"/>
	<advance width="828"/>
	<outline>
		<contour>
			<point x="38" y="0" type="line"/>
			<point x="800" y="0" type="line"/>
			<point x="800" y="736" type="line"/>
			<point x="38" y="736" type="line"/>
		</contour>
		<contour>
			<point x="38" y="0" type="line"/>
			<point x="800" y="0" type="line"/>
			<point x="800" y="736" type="line"/>
			<point x="38" y="736" type="line"/>
		</contour>
	</outline>
</glyph>
<glyph name="F" format="2">
	<unicode hex="0046"/>
	<advance width="638"/>
	<outline>
		<contour>
			<point x="38" y="0" type="line"/>
			<point x="623" y="0" type="line"/>
			<point x="623" y="732" type="line"/>
			<point x="38" y="732" type="line"/>
		</contour>
		<contour>
			<point x="38" y="0" type="line"/>
			<point x="623" y="0" type="line"/>
			<point x="623" y="732" type="line"/>
			<point x="38" y="732" type="line"/>
		</contour>
	</outline>
</glyph>
<glyph name="G" format="2">
	<unicode hex="0047"/>
	<advance width="818"/>
	<outline>
		<contour>
			<point x="28" y="-15" type="line"/>
			<point x="798" y="-15" type="line"/>
			<point x="798" y="747" type="line"/>
			<point x="28" y="747" type="line"/>
		</contour>
	</outline>
</glyph>
<glyph name="H" format="2">
	<unicode hex="0048"/>
	<advance width="836"/>
	<outline>
		<contour>
			<point x="38" y="0" type="line"/>
			<point x="798" y="0" type="line"/>
			<point x="798" y="732" type="line"/>
			<point x="38" y="732" type="line"/>
		</contour>
		<contour>
			<point x="38" y="0" type="line"/>
			<point x="798" y="0" type="line"/>
			<point x="798" y="732" type="line"/>
			<point x="38" y="732" type="line"/>
		</contour>
		<contour>
			<point x="38" y="0" type="line"/>
			<point x="798" y="0" type="line"/>
			<point x="798" y="732" type="line"/>
			<point x="38" y="732" type="line"/>
		</contour>
	</outline>
</glyph>
<glyph name="J" format="2">
	<unicode hex="004A"/>
	<advance width="526"/>
	<outline>
		<contour>
			<point x="20" y="-15" type="line"/>
			<point x="498" y="-15" type="line"/>
			<point x="498" y="732" type="line"/>
			<point x="20" y="732" type="line"/>
		</contour>
	</outline>
	<anchor name="center" x="356" y="358"/>
</glyph>
<glyph name="K" format="2">
	<unicode hex="004B"/>
	<advance width="772"/>
	<outline>
		<contour>
			<point x="38" y="0" type="line"/>
			<point x="783" y="0" type="line"/>
			<point x="783" y="732" type="line"/>
			<point x="38" y="732" type="line"/>
		</contour>
		<contour>
			<point x="38" y="0" type="line"/>
			<point x="783" y="0" type="line"/>
			<point x="783" y="732" type="line"/>
			<point x="38" y="732" type="line"/>
		</contour>
	</outline>
</glyph>
<glyph name="L" format="2">
	<unicode hex="004C"/>
	<advance width="637"/>
	<outline>
		<contour>
			<point x="38" y="0" type="line"/>
			<point x="627" y="0" type="line"/>
			<point x="627" y="732" type="line"/>
			<point x="38" y="732" type="line"/>
		</contour>
	</outline>
</glyph>
<glyph name="M" format="2">
	<unicode hex="004D"/>
	<advance width="903"/>
	<outline>
		<contour>
			<point x="8" y="0" type="line"/>
			<point x="894" y="0" type="line"/>
			<point x="894" y="732" type="line"/>
			<point x="8" y="732" type="line"/>
		</contour>
	</outline>
</glyph>
<glyph name="N" format="2">
	<unicode hex="004E"/>
	<advance width="736"/>
	<outline>
		<contour>
			<point x="-2" y="-3" type="line"/>
			<point x="718" y="-3" type="line"/>
			<point x="718" y="732" type="line"/>
			<point x="-2" y="732" type="line"/>
		</contour>
		<contour>
			<point x="-2" y="-3" type="line"/>
			<point x="718" y="-3" type="line"/>
			<point x="718" y="732" type="line"/>
			<point x="-2" y="732" type="line"/>
		</contour>
		<contour>
			<point x="-2" y="-3" type="line"/>
			<point x="718" y="-3" type="line"/>
			<point x="718" y="732" type="line"/>
			<point x="-2" y="732" type="line"/>
		</contour>
	</outline>
	<anchor name="center" x="394" y="364"/>
</glyph>
<glyph name="O" format="2">
	<unicode hex="004F"/>
	<advance width="844"/>
	<outline>
		<contour>
			<point x="28" y="-15" type="line"/>
			<point x="816" y="-15" type="line"/>
			<point x="816" y="747" type="line"/>
			<point x="28" y="747" type="line"/>
		</contour>
		<contour>
			<point x="28" y="-15" type="line"/>
			<point x="816" y="-15" type="line"/>
			<point x="816" y="747" type="line"/>
			<point x="28" y="747" type="line"/>
		</contour>
	</outline>
	<anchor name="center" x="422" y="366"/>
</glyph>
<glyph name="P" format="2">
	<unicode hex="0050"/>
	<advance width="672"/>
	<outline>
		<contour>
			<point x="38" y="0" type="line"/>
			<point x="662" y="0" type="line"/>
			<point x="662" y="732" type="line"/>
			<point x="38" y="732" type="line"/>
		</contour>
	</outline>
</glyph>
<glyph name="Q" format="2">
	<unicode hex="0051"/>
	<advance width="844"/>
	<outline>
		<contour>
			<point x="28" y="-189" type="line"/>
			<point x="852" y="-189" type="line"/>
			<point x="852" y="747" type="line"/>
			<point x="28" y="747" type="line"/>
		</contour>
		<contour>
			<point x="28" y="-189" type="line"/>
			<point x="852" y="-189" type="line"/>
			<point x="852" y="747" type="line"/>
			<point x="28" y="747" type="line"/>
		</contour>
		<contour>
			<point x="28" y="-189" type="line"/>
			<point x="852" y="-189" type="line"/>
			<point x="852" y="747" type="line"/>
			<point x="28" y="747" type="line"/>
		</contour>
		<component base="O"/>
	</outline>
</glyph>
<glyph name="R" format="2">
	<unicode hex="0052"/>
	<advance width="762"/>
	<outline>
		<contour>
			<point x="38" y="0" type="line"/>
			<point x="769" y="0" type="line"/>
			<point x="769" y="732" type="line"/>
			<point x="38" y="732" type="line"/>
		</contour>
		<contour>
			<point x="38" y="0" type="line"/>
			<point x="769" y="0" type="line"/>
			<point x="769" y="732" type="line"/>
			<point x="38" y="732" type="line"/>
		</contour>
	</outline>
	<anchor name="center" x="347" y="364"/>
</glyph>
<glyph name="S" format="2">
	<unicode hex="0053"/>
	<advance width="601"/>
	<outline>
		<contour>
			<point x="33" y="-15" type="line"/>
			<point x="571" y="-15" type="line"/>
			<point x="571" y="747" type="line"/>
			<point x="33" y="747" type="line"/>
		</contour>
	</outline>
	<anchor name="center" x="292" y="366"/>
</glyph>
<glyph name="T" format="2">
	<unicode hex="0054"/>
	<advance width="756"/>
	<outline>
		<contour>
			<point x="20" y="0" type="line"/>
			<point x="736" y="0" type="line"/>
			<point x="736" y="732" type="line"/>
			<point x="20" y="732" type="line"/>
		</contour>
	</outline>
</glyph>
<glyph name="U" format="2">
	<unicode hex="0055"/>
	<advance width="754"/>
	<outline>
		<contour>
			<point x="44" y="-15" type="line"/>
			<point x="756" y="-15" type="line"/>
			<point x="756" y="732" type="line"/>
			<point x="44" y="732" type="line"/>
		</contour>
	</outline>
</glyph>
<glyph name="V" format="2">
	<unicode hex="0056"/>
	<advance width="748"/>
	<outline>
		<contour>
			<point x="5" y="0" type="line"/>
			<point x="743" y="0" type="line"/>
			<point x="743" y="732" type="line"/>
			<point x="5" y="732" type="line"/>
		</contour>
		<contour>
			<point x="5" y="0" type="line"/>
			<point x="743" y="0" type="line"/>
			<point x="743" y="732" type="line"/>
			<point x="5" y="732" type="line"/>
		</contour>
	</outline>
</glyph>
<glyph name="X" format="2">
	<unicode hex="0058"/>
	<advance width="745"/>
	<outline>
		<contour>
			<point x="5" y="0" type="line"/>
			<point x="740" y="0" type="line"/>
			<point x="740" y="732" type="line"/>
			<point x="5" y="732" type="line"/>
		</contour>
	</outline>
</glyph>
<glyph name="Y" format="2">
	<unicode hex="0059"/>
	<advance width="691"/>
	<outline>
		<contour>
			<point x="5" y="0" type="line"/>
			<point x="686" y="0" type="line"/>
			<point x="686" y="732" type="line"/>
			<point x="5" y="732" type="line"/>
		</contour>
		<contour>
			<point x="5" y="0" type="line"/>
			<point x="686" y="0" type="line"/>
			<point x="686" y="732" type="line"/>
			<point x="5" y="732" type="line"/>
		</contour>
		<contour>
			<point x="5" y="0" type="line"/>
			<point x="686" y="0" type="line"/>
			<point x="686" y="732" type="line"/>
			<point x="5" y="732" type="line"/>
		</contour>
	</outline>
	<anchor name="center" x="395" y="366"/>
</glyph>
<glyph name="Z" format="2">
	<unicode hex="005A"/>
	<advance width="692"/>
	<outline>
		<contour>
			<point x="13" y="0" type="line"/>
			<point x="674" y="0" type="line"/>
			<point x="674" y="732" type="line"/>
			<point x="13" y="732" type="line"/>
		</contour>
	</outline>
</glyph>
<glyph name="bracketleft" format="2">
	<unicode hex="005B"/>
	<advance width="375"/>
	<outline>
		<contour>
			<point x="60" y="-130" type="line"/>
			<point x="360" y="-130" type="line"/>
			<point x="360" y="755" type="line"/>
			<point x="60" y="755" type="line"/>
		</contour>
		<contour>
			<point x="60" y="-130" type="line"/>
			<point x="360" y="-130" type="line"/>
			<point x="360" y="755" type="line"/>
			<point x="60" y="755" type="line"/>
		</contour>
		<contour>
			<point x="60" y="-130" type="line"/>
			<point x="360" y="-130" type="line"/>
			<point x="360" y="755" type="line"/>
			<point x="60" y="755" type="line"/>
		</contour>
	</outline>
</glyph>
<glyph name="a" format="2">
	<unicode hex="0061"/>
	<advance width="553"/>
	<outline>
		<contour>
			<point x="20" y="-15" type="line"/>
			<point x="543" y="-15" type="line"/>
			<point x="543" y="508" type="line"/>
			<point x="20" y="508" type="line"/>
		</contour>
		<contour>
			<point x="20" y="-15" type="line"/>
			<point x="543" y="-15" type="line"/>
			<point x="543" y="508" type="line"/>
			<point x="20" y="508" type="line"/>
		</contour>
	</outline>
	<anchor name="center" x="265" y="246"/>
</glyph>
<glyph name="b" format="2">
	<unicode hex="0062"/>
	<advance width="617"/>
	<outline>
		<contour>
			<point x="-3" y="-15" type="line"/>
			<point x="592" y="-15" type="line"/>
			<point x="592" y="779" type="line"/>
			<point x="-3" y="779" type="line"/>
		</contour>
		<contour>
			<point x="-3" y="-15" type="line"/>
			<point x="592" y="-15" type="line"/>
			<point x="592" y="779" type="line"/>
			<point x="-3" y="779" type="line"/>
		</contour>
	</outline>
</glyph>
<glyph name="c" format="2">
	<unicode hex="0063"/>
	<advance width="514"/>
	<outline>
		<contour>
			<point x="25" y="-15" type="line"/>
			<point x="489" y="-15" type="line"/>
			<point x="489" y="508" type="line"/>
			<point x="25" y="508" type="line"/>
		</contour>
	</outline>
	<anchor name="center" x="273" y="246"/>
</glyph>
<glyph name="d" format="2">
	<unicode hex="0064"/>
	<advance width="635"/>
	<outline>
		<contour>
			<point x="25" y="-15" type="line"/>
			<point x="619" y="-15" type="line"/>
			<point x="619" y="779" type="line"/>
			<point x="25" y="779" type="line"/>
		</contour>
		<contour>
			<point x="25" y="-15" type="line"/>
			<point x="619" y="-15" type="line"/>
			<point x="619" y="779" type="line"/>
			<point x="25" y="779" type="line"/>
		</contour>
	</outline>
</glyph>
<glyph name="e" format="2">
	<unicode hex="0065"/>
	<advance width="531"/>
	<outline>
		<contour>
			<point x="25" y="-15" type="line"/>
			<point x="506" y="-15" type="line"/>
			<point x="506" y="508" type="line"/>
			<point x="25" y="508" type="line"/>
		</contour>
	</outline>
	<anchor name="center" x="271" y="246"/>
</glyph>
<glyph name="f" format="2">
	<unicode hex="0066"/>
	<advance width="397"/>
	<outline>
		<contour>
			<point x="12" y="0" type="line"/>
			<point x="458" y="0" type="line"/>
			<point x="458" y="778" type="line"/>
			<point x="12" y="778" type="line"/>
		</contour>
		<contour>
			<point x="12" y="0" type="line"/>
			<point x="458" y="0" type="line"/>
			<point x="458" y="778" type="line"/>
			<point x="12" y="778" type="line"/>
		</contour>
	</outline>
</glyph>
<glyph name="g" format="2">
	<unicode hex="0067"/>
	<advance width="585"/>
	<outline>
		<contour>
			<point x="6" y="-233" type="line"/>
			<point x="559" y="-233" type="line"/>
			<point x="559" y="561" type="line"/>
			<point x="6" y="561" type="line"/>
		</contour>
		<contour>
			<point x="6" y="-233" type="line"/>
			<point x="559" y="-233" type="line"/>
			<point x="559" y="561" type="line"/>
			<point x="6" y="561" type="line"/>
		</contour>
		<contour>
			<point x="6" y="-233" type="line"/>
			<point x="559" y="-233" type="line"/>
			<point x="559" y="561" type="line"/>
			<point x="6" y="561" type="line"/>
		</contour>
		<contour>
			<point x="6" y="-233" type="line"/>
			<point x="559" y="-233" type="line"/>
			<point x="559" y="561" type="line"/>
			<point x="6" y="561" type="line"/>
		</contour>
	</outline>
</glyph>
<glyph name="h" format="2">
	<unicode hex="0068"/>
	<advance width="634"/>
	<outline>
		<contour>
			<point x="5" y="0" type="line"/>
			<point x="601" y="0" type="line"/>
			<point x="601" y="779" type="line"/>
			<point x="5" y="779" type="line"/>
		</contour>
		<contour>
			<point x="5" y="0" type="line"/>
			<point x="601" y="0" type="line"/>
			<point x="601" y="779" type="line"/>
			<point x="5" y="779" type="line"/>
		</contour>
	</outline>
</glyph>
<glyph name="i" format="2">
	<unicode hex="0069"/>
	<advance width="307"/>
	<outline>
		<contour>
			<point x="7" y="0" type="line"/>
			<point x="277" y="0" type="line"/>
			<point x="277" y="752" type="line"/>
			<point x="7" y="752" type="line"/>
		</contour>
		<contour>
			<point x="7" y="0" type="line"/>
			<point x="277" y="0" type="line"/>
			<point x="277" y="752" type="line"/>
			<point x="7" y="752" type="line"/>
		</contour>
	</outline>
</glyph>
<glyph name="j" format="2">
	<unicode hex="006A"/>
	<advance width="298"/>
	<outline>
		<contour>
			<point x="-40" y="-215" type="line"/>
			<point x="247" y="-215" type="line"/>
			<point x="247" y="752" type="line"/>
			<point x="-40" y="752" type="line"/>
		</contour>
		<contour>
			<point x="-40" y="-215" type="line"/>
			<point x="247" y="-215" type="line"/>
			<point x="247" y="752" type="line"/>
			<point x="-40" y="752" type="line"/>
		</contour>
	</outline>
</glyph>
<glyph name="k" format="2">
	<unicode hex="006B"/>
	<advance width="616"/>
	<outline>
		<contour>
			<point x="7" y="0" type="line"/>
			<point x="606" y="0" type="line"/>
			<point x="606" y="779" type="line"/>
			<point x="7" y="779" type="line"/>
		</contour>
		<contour>
			<point x="7" y="0" type="line"/>
			<point x="606" y="0" type="line"/>
			<point x="606" y="779" type="line"/>
			<point x="7" y="779" type="line"/>
		</contour>
	</outline>
</glyph>
<glyph name="l" format="2">
	<unicode hex="006C"/>
	<advance width="307"/>
	<outline>
		<contour>
			<point x="7" y="0" type="line"/>
			<point x="277" y="0" type="line"/>
			<point x="277" y="779" type="line"/>
			<point x="7" y="779" type="line"/>
		</contour>
	</outline>
</glyph>
<glyph name="m" format="2">
	<unicode hex="006D"/>
	<advance width="930"/>
	<outline>
		<contour>
			<point x="-2" y="0" type="line"/>
			<point x="900" y="0" type="line"/>
			<point x="900" y="513" type="line"/>
			<point x="-2" y="513" type="line"/>
		</contour>
	</outline>
</glyph>
<glyph name="n" format="2">
	<unicode hex="006E"/>
	<advance width="637"/>
	<outline>
		<contour>
			<point x="8" y="0" type="line"/>
			<point x="604" y="0" type="line"/>
			<point x="604" y="513" type="line"/>
			<point x="8" y="513" type="line"/>
		</contour>
	</outline>
</glyph>
<glyph name="o" format="2">
	<unicode hex="006F"/>
	<advance width="601"/>
	<outline>
		<contour>
			<point x="25" y="-15" type="line"/>
			<point x="576" y="-15" type="line"/>
			<point x="576" y="508" type="line"/>
			<point x="25" y="508" type="line"/>
		</contour>
		<contour>
			<point x="25" y="-15" type="line"/>
			<point x="576" y="-15" type="line"/>
			<point x="576" y="508" type="line"/>
			<point x="25" y="508" type="line"/>
		</contour>
	</outline>
	<anchor name="center" x="300" y="246"/>
</glyph>
<glyph name="p" format="2">
	<unicode hex="0070"/>
	<advance width="624"/>
	<outline>
		<contour>
			<point x="4" y="-225" type="line"/>
			<point x="599" y="-225" type="line"/>
			<point x="599" y="513" type="line"/>
			<point x="4" y="513" type="line"/>
		</contour>
		<contour>
			<point x="4" y="-225" type="line"/>
			<point x="599" y="-225" type="line"/>
			<point x="599" y="513" type="line"/>
			<point x="4" y="513" type="line"/>
		</contour>
	</outline>
</glyph>
<glyph name="q" format="2">
	<unicode hex="0071"/>
	<advance width="620"/>
	<outline>
		<contour>
			<point x="25" y="-225" type="line"/>
			<point x="590" y="-225" type="line"/>
			<point x="590" y="508" type="line"/>
			<point x="25" y="508" type="line"/>
		</contour>
		<contour>
			<point x="25" y="-225" type="line"/>
			<point x="590" y="-225" type="line"/>
			<point x="590" y="508" type="line"/>
			<point x="25" y="508" type="line"/>
		</contour>
	</outline>
</glyph>
<glyph name="r" format="2">
	<unicode hex="0072"/>
	<advance width="448"/>
	<outline>
		<contour>
			<point x="8" y="0" type="line"/>
			<point x="433" y="0" type="line"/>
			<point x="433" y="513" type="line"/>
			<point x="8" y="513" type="line"/>
		</contour>
	</outline>
</glyph>
<glyph name="s" format="2">
	<unicode hex="0073"/>
	<advance width="444"/>
	<outline>
		<contour>
			<point x="20" y="-15" type="line"/>
			<point x="424" y="-15" type="line"/>
			<point x="424" y="507" type="line"/>
			<point x="20" y="507" type="line"/>
		</contour>
	</outline>
	<anchor name="center" x="222" y="246"/>
</glyph>
<glyph name="t" format="2">
	<unicode hex="0074"/>
	<advance width="404"/>
	<outline>
		<contour>
			<point x="2" y="-15" type="line"/>
			<point x="379" y="-15" type="line"/>
			<point x="379" y="610" type="line"/>
			<point x="2" y="610" type="line"/>
		</contour>
		<contour>
			<point x="2" y="-15" type="line"/>
			<point x="379" y="-15" type="line"/>
			<point x="379" y="610" type="line"/>
			<point x="2" y="610" type="line"/>
		</contour>
	</outline>
</glyph>
<glyph name="u" format="2">
	<unicode hex="0075"/>
	<advance width="611"/>
	<outline>
		<contour>
			<point x="10" y="-15" type="line"/>
			<point x="593" y="-15" type="line"/>
			<point x="593" y="492" type="line"/>
			<point x="10" y="492" type="line"/>
		</contour>
		<contour>
			<point x="10" y="-15" type="line"/>
			<point x="593" y="-15" type="line"/>
			<point x="593" y="492" type="line"/>
			<point x="10" y="492" type="line"/>
		</contour>
	</outline>
</glyph>
<glyph name="v" format="2">
	<unicode hex="0076"/>
	<advance width="500"/>
	<outline>
		<contour>
			<point x="-20" y="-5" type="line"/>
			<point x="500" y="-5" type="line"/>
			<point x="500" y="492" type="line"/>
			<point x="-20" y="492" type="line"/>
		</contour>
		<contour>
			<point x="-20" y="-5" type="line"/>
			<point x="500" y="-5" type="line"/>
			<point x="500" y="492" type="line"/>
			<point x="-20" y="492" type="line"/>
		</contour>
	</outline>
</glyph>
<glyph name="w" format="2">
	<unicode hex="0077"/>
	<advance width="780"/>
	<outline>
		<contour>
			<point x="-20" y="-5" type="line"/>
			<point x="780" y="-5" type="line"/>
			<point x="780" y="492" type="line"/>
			<point x="-20" y="492" type="line"/>
		</contour>
		<contour>
			<point x="-20" y="-5" type="line"/>
			<point x="780" y="-5" type="line"/>
			<point x="780" y="492" type="line"/>
			<point x="-20" y="492" type="line"/>
		</contour>
		<contour>
			<point x="-20" y="-5" type="line"/>
			<point x="780" y="-5" type="line"/>
			<point x="780" y="492" type="line"/>
			<point x="-20" y="492" type="line"/>
		</contour>
		<contour>
			<point x="-20" y="-5" type="line"/>
			<point x="780" y="-5" type="line"/>
			<point x="780" y="492" type="line"/>
			<point x="-20" y="492" type="line"/>
		</contour>
	</outline>
</glyph>
<glyph name="x" format="2">
	<unicode hex="0078"/>
	<advance width="542"/>
	<outline>
		<contour>
			<point x="0" y="0" type="line"/>
			<point x="542" y="0" type="line"/>
			<point x="542" y="492" type="line"/>
			<point x="0" y="492" type="line"/>
		</contour>
		<contour>
			<point x="0" y="0" type="line"/>
			<point x="542" y="0" type="line"/>
			<point x="542" y="492" type="line"/>
			<point x="0" y="492" type="line"/>
		</contour>
		<contour>
			<point x="0" y="0" type="line"/>
			<point x="542" y="0" type="line"/>
			<point x="542" y="492" type="line"/>
			<point x="0" y="492" type="line"/>
		</contour>
	</outline>
</glyph>
<glyph name="y" format="2">
	<unicode hex="0079"/>
	<advance width="496"/>
	<outline>
		<contour>
			<point x="-20" y="-225" type="line"/>
			<point x="496" y="-225" type="line"/>
			<point x="496" y="492" type="line"/>
			<point x="-20" y="492" type="line"/>
		</contour>
		<contour>
			<point x="-20" y="-225" type="line"/>
			<point x="496" y="-225" type="line"/>
			<point x="496" y="492" type="line"/>
			<point x="-20" y="492" type="line"/>
		</contour>
	</outline>
	<anchor name="center" x="270" y="133"/>
</glyph>
<glyph name="z" format="2">
	<unicode hex="007A"/>
	<advance width="507"/>
	<outline>
		<contour>
			<point x="15" y="0" type="line"/>
			<point x="489" y="0" type="line"/>
			<point x="489" y="492" type="line"/>
			<point x="15" y="492" type="line"/>
		</contour>
	</outline>
</glyph>
<glyph name="braceleft" format="2">
	<unicode hex="007B"/>
	<advance width="401"/>
	<outline>
		<contour>
			<point x="45" y="-130" type="line"/>
			<point x="386" y="-130" type="line"/>
			<point x="386" y="755" type="line"/>
			<point x="45" y="755" type="line"/>
		</contour>
	</outline>
</glyph>
<glyph name="bar" format="2">
	<unicode hex="007C"/>
	<advance width="205"/>
	<outline>
		<contour>
			<point x="88" y="-130" type="line"/>
			<point x="117" y="-130" type="line"/>
			<point x="117" y="781" type="line"/>
			<point x="88" y="781" type="line"/>
		</contour>
	</outline>
</glyph>
<glyph name="asciitilde" format="2">
	<unicode hex="007E"/>
	<advance width="452"/>
	<outline>
		<contour>
			<point x="37" y="180" type="line"/>
			<point x="417" y="180" type="line"/>
			<point x="417" y="370" type="line"/>
			<point x="37" y="370" type="line"/>
		</contour>
	</outline>
</glyph>
<glyph name="comma-ar" format="2">
	<unicode hex="060C"/>
	<advance width="264"/>
	<outline>
		<contour>
			<point x="43" y="-20" type="line"/>
			<point x="254" y="-20" type="line"/>
			<point x="254" y="297" type="line"/>
			<point x="43" y="297" type="line"/>
		</contour>
	</outline>
</glyph>
<glyph name="dateseparator-ar" format="2">
	<unicode hex="060D"/>
	<advance width="299"/>
	<outline>
		<contour>
			<point x="50" y="0" type="line"/>
			<point x="249" y="0" type="line"/>
			<point x="249" y="537" type="line"/>
			<point x="50" y="537" type="line"/>
		</contour>
	</outline>
</glyph>
<glyph name="tahabove-ar" format="2">
	<unicode hex="0615"/>
	<outline>
		<contour>
			<point x="0" y="63" type="line"/>
			<point x="266" y="63" type="line"/>
			<point x="266" y="339" type="line"/>
			<point x="0" y="339" type="line"/>
		</contour>
	</outline>
	<anchor name="_top" x="165" y="0"/>
	<anchor name="top" x="148" y="330"/>
</glyph>
<glyph name="question-ar" format="2">
	<unicode hex="061F"/>
	<advance width="389"/>
	<outline>
		<contour>
			<point x="20" y="-5" type="line"/>
			<point x="379" y="-5" type="line"/>
			<point x="379" y="747" type="line"/>
			<point x="20" y="747" type="line"/>
		</contour>
		<contour>
			<point x="20" y="-5" type="line"/>
			<point x="379" y="-5" type="line"/>
			<point x="379" y="747" type="line"/>
			<point x="20" y="747" type="line"/>
		</contour>
	</outline>
</glyph>
<glyph name="hamza-ar" format="2">
	<unicode hex="0621"/>
	<advance width="383"/>
	<outline>
		<contour>
			<point x="-10" y="-25" type="line"/>
			<point x="373" y="-25" type="line"/>
			<point x="373" y="450" type="line"/>
			<point x="-10" y="450" type="line"/>
		</contour>
	</outline>
</glyph>
<glyph name="alef-ar" format="2">
	<unicode hex="0627"/>
	<advance width="215"/>
	<outline>
		<contour>
			<point x="48" y="-14" type="line"/>
			<point x="210" y="-14" type="line"/>
			<point x="210" y="779" type="line"/>
			<point x="48" y="779" type="line"/>
		</contour>
	</outline>
</glyph>
<glyph name="hah-ar" format="2">
	<unicode hex="062D"/>
	<advance width="614"/>
	<outline>
		<contour>
			<point x="25" y="-400" type="line"/>
			<point x="634" y="-400" type="line"/>
			<point x="634" y="514.756688019" type="line"/>
			<point x="25" y="514.756688019" type="line"/>
		</contour>
	</outline>
</glyph>
<glyph name="dal-ar" format="2">
	<unicode hex="062F"/>
	<advance width="508"/>
	<outline>
		<contour>
			<point x="25" y="-15" type="line"/>
			<point x="483" y="-15" type="line"/>
			<point x="483" y="610" type="line"/>
			<point x="25" y="610" type="line"/>
		</contour>
	</outline>
</glyph>
<glyph name="reh-ar" format="2">
	<unicode hex="0631"/>
	<advance width="323"/>
	<outline>
		<contour>
			<point x="-100" y="-225" type="line"/>
			<point x="318" y="-225" type="line"/>
			<point x="318" y="492" type="line"/>
			<point x="-100" y="492" type="line"/>
		</contour>
	</outline>
</glyph>
<glyph name="seen-ar" format="2">
	<unicode hex="0633"/>
	<advance width="1171"/>
	<outline>
		<contour>
			<point x="25" y="-300" type="line"/>
			<point x="1146" y="-300" type="line"/>
			<point x="1146" y="440" type="line"/>
			<point x="25" y="440" type="line"/>
		</contour>
		<contour>
			<point x="25" y="-300" type="line"/>
			<point x="1146" y="-300" type="line"/>
			<point x="1146" y="440" type="line"/>
			<point x="25" y="440" type="line"/>
		</contour>
	</outline>
</glyph>
<glyph name="sad-ar" format="2">
	<unicode hex="0635"/>
	<advance width="1302"/>
	<outline>
		<contour>
			<point x="25" y="-300" type="line"/>
			<point x="1262" y="-300" type="line"/>
			<point x="1262" y="492" type="line"/>
			<point x="25" y="492" type="line"/>
		</contour>
	</outline>
</glyph>
<glyph name="tah-ar" format="2">
	<unicode hex="0637"/>
	<advance width="870"/>
	<outline>
		<contour>
			<point x="10" y="0" type="line"/>
			<point x="830" y="0" type="line"/>
			<point x="830" y="779" type="line"/>
			<point x="10" y="779" type="line"/>
		</contour>
	</outline>
</glyph>
<glyph name="ain-ar" format="2">
	<unicode hex="0639"/>
	<advance width="545"/>
	<outline>
		<contour>
			<point x="20" y="-400" type="line"/>
			<point x="665" y="-400" type="line"/>
			<point x="665" y="675" type="line"/>
			<point x="20" y="675" type="line"/>
		</contour>
	</outline>
</glyph>
<glyph name="kashida-ar" format="2">
	<unicode hex="0640"/>
	<advance width="60"/>
	<outline>
		<contour>
			<point x="-10" y="0" type="line"/>
			<point x="60" y="0" type="line"/>
			<point x="60" y="200" type="line"/>
			<point x="-10" y="200" type="line"/>
		</contour>
	</outline>
	<anchor name="bottom" x="30" y="0"/>
	<anchor name="top" x="30" y="200"/>
</glyph>
<glyph name="kaf-ar" format="2">
	<unicode hex="0643"/>
	<advance width="908"/>
	<outline>
		<contour>
			<point x="25" y="-15" type="line"/>
			<point x="903" y="-15" type="line"/>
			<point x="903" y="789" type="line"/>
			<point x="25" y="789" type="line"/>
		</contour>
		<contour>
			<point x="25" y="-15" type="line"/>
			<point x="903" y="-15" type="line"/>
			<point x="903" y="789" type="line"/>
			<point x="25" y="789" type="line"/>
		</contour>
	</outline>
</glyph>
<glyph name="lam-ar" format="2">
	<unicode hex="0644"/>
	<advance width="739"/>
	<outline>
		<contour>
			<point x="25" y="-140" type="line"/>
			<point x="734" y="-140" type="line"/>
			<point x="734" y="779" type="line"/>
			<point x="25" y="779" type="line"/>
		</contour>
	</outline>
	<anchor name="bottom" x="334" y="-140"/>
	<anchor name="top" x="350" y="430"/>
</glyph>
<glyph name="meem-ar" format="2">
	<unicode hex="0645"/>
	<advance width="837"/>
	<outline>
		<contour>
			<point x="-80" y="-41" type="line"/>
			<point x="807.220945522" y="-41" type="line"/>
			<point x="807.220945522" y="520" type="line"/>
			<point x="-80" y="520" type="line"/>
		</contour>
	</outline>
</glyph>
<glyph name="heh-ar" format="2">
	<unicode hex="0647"/>
	<advance width="429"/>
	<outline>
		<contour>
			<point x="30" y="-15" type="line"/>
			<point x="399" y="-15" type="line"/>
			<point x="399" y="610" type="line"/>
			<point x="30" y="610" type="line"/>
		</contour>
		<contour>
			<point x="30" y="-15" type="line"/>
			<point x="399" y="-15" type="line"/>
			<point x="399" y="610" type="line"/>
			<point x="30" y="610" type="line"/>
		</contour>
	</outline>
	<anchor name="bottom" x="213" y="-15"/>
	<anchor name="top" x="215" y="590"/>
</glyph>
<glyph name="waw-ar" format="2">
	<unicode hex="0648"/>
	<advance width="426"/>
	<outline>
		<contour>
			<point x="-24" y="-225" type="line"/>
			<point x="401" y="-225" type="line"/>
			<point x="401" y="520" type="line"/>
			<point x="-24" y="520" type="line"/>
		</contour>
	</outline>
</glyph>
<glyph name="alefMaksura-ar" format="2">
	<unicode hex="0649"/>
	<advance width="753"/>
	<outline>
		<contour>
			<point x="25" y="-140" type="line"/>
			<point x="733" y="-140" type="line"/>
			<point x="733" y="637" type="line"/>
			<point x="25" y="637" type="line"/>
		</contour>
	</outline>
</glyph>
<glyph name="fathatan-ar" format="2">
	<unicode hex="064B"/>
	<outline>
		<contour>
			<point x="39" y="44" type="line"/>
			<point x="197" y="44" type="line"/>
			<point x="197" y="289" type="line"/>
			<point x="39" y="289" type="line"/>
		</contour>
		<contour>
			<point x="39" y="44" type="line"/>
			<point x="197" y="44" type="line"/>
			<point x="197" y="289" type="line"/>
			<point x="39" y="289" type="line"/>
		</contour>
	</outline>
	<anchor name="_top" x="118" y="0"/>
	<anchor name="top" x="118" y="214"/>
</glyph>
<glyph name="dammatan-ar" format="2">
	<unicode hex="064C"/>
	<outline>
		<contour>
			<point x="32" y="44" type="line"/>
			<point x="247" y="44" type="line"/>
			<point x="247" y="272" type="line"/>
			<point x="32" y="272" type="line"/>
		</contour>
		<contour>
			<point x="32" y="44" type="line"/>
			<point x="247" y="44" type="line"/>
			<point x="247" y="272" type="line"/>
			<point x="32" y="272" type="line"/>
		</contour>
	</outline>
</glyph>
<glyph name="kasratan-ar" format="2">
	<unicode hex="064D"/>
	<outline>
		<contour>
			<point x="39" y="-50" type="line"/>
			<point x="197" y="-50" type="line"/>
			<point x="197" y="195" type="line"/>
			<point x="39" y="195" type="line"/>
		</contour>
		<contour>
			<point x="39" y="-50" type="line"/>
			<point x="197" y="-50" type="line"/>
			<point x="197" y="195" type="line"/>
			<point x="39" y="195" type="line"/>
		</contour>
	</outline>
	<anchor name="_bottom" x="118" y="249"/>
	<anchor name="bottom" x="118" y="26"/>
</glyph>
<glyph name="fatha-ar" format="2">
	<unicode hex="064E"/>
	<outline>
		<contour>
			<point x="39" y="44" type="line"/>
			<point x="197" y="44" type="line"/>
			<point x="197" y="195" type="line"/>
			<point x="39" y="195" type="line"/>
		</contour>
	</outline>
	<anchor name="_top" x="128" y="0"/>
	<anchor name="top" x="118" y="120"/>
</glyph>
<glyph name="damma-ar" format="2">
	<unicode hex="064F"/>
	<outline>
		<contour>
			<point x="32" y="44" type="line"/>
			<point x="197" y="44" type="line"/>
			<point x="197" y="272" type="line"/>
			<point x="32" y="272" type="line"/>
		</contour>
	</outline>
	<anchor name="_top" x="121" y="0"/>
	<anchor name="top" x="112" y="226"/>
</glyph>
<glyph name="kasra-ar" format="2">
	<unicode hex="0650"/>
	<outline>
		<contour>
			<point x="39" y="44" type="line"/>
			<point x="197" y="44" type="line"/>
			<point x="197" y="195" type="line"/>
			<point x="39" y="195" type="line"/>
		</contour>
	</outline>
</glyph>
<glyph name="shadda-ar" format="2">
	<unicode hex="0651"/>
	<outline>
		<contour>
			<point x="40" y="77" type="line"/>
			<point x="242.5988876555" y="77" type="line"/>
			<point x="242.5988876555" y="219" type="line"/>
			<point x="40" y="219" type="line"/>
		</contour>
	</outline>
	<anchor name="_top" x="145" y="0"/>
	<anchor name="top" x="145" y="171"/>
</glyph>
<glyph name="sukun-ar" format="2">
	<unicode hex="0652"/>
	<outline>
		<contour>
			<point x="20" y="66" type="line"/>
			<point x="194" y="66" type="line"/>
			<point x="194" y="241" type="line"/>
			<point x="20" y="241" type="line"/>
		</contour>
		<contour>
			<point x="20" y="66" type="line"/>
			<point x="194" y="66" type="line"/>
			<point x="194" y="241" type="line"/>
			<point x="20" y="241" type="line"/>
		</contour>
	</outline>
	<anchor name="_top" x="106" y="0"/>
	<anchor name="top" x="107" y="223"/>
</glyph>
<glyph name="madda-ar" format="2">
	<unicode hex="0653"/>
	<outline>
		<contour>
			<point x="42" y="36" type="line"/>
			<point x="246" y="36" type="line"/>
			<point x="246" y="176" type="line"/>
			<point x="42" y="176" type="line"/>
		</contour>
	</outline>
</glyph>
<glyph name="noonghunnaabove-ar" format="2">
	<unicode hex="0658"/>
	<outline>
		<contour>
			<point x="30" y="53" type="line"/>
			<point x="237" y="53" type="line"/>
			<point x="237" y="235" type="line"/>
			<point x="30" y="235" type="line"/>
		</contour>
	</outline>
</glyph>
<glyph name="vabove-ar" format="2">
	<unicode hex="065A"/>
	<outline>
		<contour>
			<point x="20" y="30" type="line"/>
			<point x="192" y="30" type="line"/>
			<point x="192" y="240" type="line"/>
			<point x="20" y="240" type="line"/>
		</contour>
	</outline>
	<anchor name="_top" x="106" y="0"/>
	<anchor name="top" x="106" y="232"/>
</glyph>
<glyph name="zero-ar" format="2">
	<unicode hex="0660"/>
	<advance width="329"/>
	<outline>
		<contour>
			<point x="20" y="164" type="line"/>
			<point x="309" y="164" type="line"/>
			<point x="309" y="456" type="line"/>
			<point x="20" y="456" type="line"/>
		</contour>
	</outline>
</glyph>
<glyph name="one-ar" format="2">
	<unicode hex="0661"/>
	<advance width="277"/>
	<outline>
		<contour>
			<point x="15" y="-15" type="line"/>
			<point x="227" y="-15" type="line"/>
			<point x="227" y="705" type="line"/>
			<point x="15" y="705" type="line"/>
		</contour>
	</outline>
</glyph>
<glyph name="two-ar" format="2">
	<unicode hex="0662"/>
	<advance width="475"/>
	<outline>
		<contour>
			<point x="15" y="-15" type="line"/>
			<point x="470" y="-15" type="line"/>
			<point x="470" y="705" type="line"/>
			<point x="15" y="705" type="line"/>
		</contour>
		<contour>
			<point x="15" y="-15" type="line"/>
			<point x="470" y="-15" type="line"/>
			<point x="470" y="705" type="line"/>
			<point x="15" y="705" type="line"/>
		</contour>
	</outline>
</glyph>
<glyph name="three-ar" format="2">
	<unicode hex="0663"/>
	<advance width="544"/>
	<outline>
		<contour>
			<point x="15" y="-15" type="line"/>
			<point x="539" y="-15" type="line"/>
			<point x="539" y="705" type="line"/>
			<point x="15" y="705" type="line"/>
		</contour>
		<contour>
			<point x="15" y="-15" type="line"/>
			<point x="539" y="-15" type="line"/>
			<point x="539" y="705" type="line"/>
			<point x="15" y="705" type="line"/>
		</contour>
		<contour>
			<point x="15" y="-15" type="line"/>
			<point x="539" y="-15" type="line"/>
			<point x="539" y="705" type="line"/>
			<point x="15" y="705" type="line"/>
		</contour>
	</outline>
</glyph>
<glyph name="four-ar" format="2">
	<unicode hex="0664"/>
	<advance width="464"/>
	<outline>
		<contour>
			<point x="40" y="-15" type="line"/>
			<point x="459" y="-15" type="line"/>
			<point x="459" y="709" type="line"/>
			<point x="40" y="709" type="line"/>
		</contour>
	</outline>
</glyph>
<glyph name="five-ar" format="2">
	<unicode hex="0665"/>
	<advance width="464"/>
	<outline>
		<contour>
			<point x="25" y="56" type="line"/>
			<point x="439" y="56" type="line"/>
			<point x="439" y="623" type="line"/>
			<point x="25" y="623" type="line"/>
		</contour>
		<contour>
			<point x="25" y="56" type="line"/>
			<point x="439" y="56" type="line"/>
			<point x="439" y="623" type="line"/>
			<point x="25" y="623" type="line"/>
		</contour>
	</outline>
</glyph>
<glyph name="six-ar" format="2">
	<unicode hex="0666"/>
	<advance width="492"/>
	<outline>
		<contour>
			<point x="0" y="-15" type="line"/>
			<point x="477" y="-15" type="line"/>
			<point x="477" y="705" type="line"/>
			<point x="0" y="705" type="line"/>
		</contour>
	</outline>
</glyph>
<glyph name="seven-ar" format="2">
	<unicode hex="0667"/>
	<advance width="508"/>
	<outline>
		<contour>
			<point x="20" y="-15" type="line"/>
			<point x="488" y="-15" type="line"/>
			<point x="488" y="705" type="line"/>
			<point x="20" y="705" type="line"/>
		</contour>
	</outline>
</glyph>
<glyph name="eight-ar" format="2">
	<unicode hex="0668"/>
	<advance width="508"/>
	<outline>
		<contour>
			<point x="20" y="-15" type="line"/>
			<point x="488" y="-15" type="line"/>
			<point x="488" y="705" type="line"/>
			<point x="20" y="705" type="line"/>
		</contour>
	</outline>
</glyph>
<glyph name="nine-ar" format="2">
	<unicode hex="0669"/>
	<advance width="465"/>
	<outline>
		<contour>
			<point x="20" y="-15" type="line"/>
			<point x="450" y="-15" type="line"/>
			<point x="450" y="715" type="line"/>
			<point x="20" y="715" type="line"/>
		</contour>
	</outline>
</glyph>
<glyph name="percent-ar" format="2">
	<unicode hex="066A"/>
	<advance width="589"/>
	<outline>
		<contour>
			<point x="20" y="-13" type="line"/>
			<point x="559" y="-13" type="line"/>
			<point x="559" y="718" type="line"/>
			<point x="20" y="718" type="line"/>
		</contour>
		<contour>
			<point x="20" y="-13" type="line"/>
			<point x="559" y="-13" type="line"/>
			<point x="559" y="718" type="line"/>
			<point x="20" y="718" type="line"/>
		</contour>
		<contour>
			<point x="20" y="-13" type="line"/>
			<point x="559" y="-13" type="line"/>
			<point x="559" y="718" type="line"/>
			<point x="20" y="718" type="line"/>
		</contour>
		<component base="zero-ar" xOffset="250" yOffset="-177"/>
		<component base="zero-ar" yOffset="249"/>
	</outline>
</glyph>
<glyph name="thousandseparator-ar" format="2">
	<unicode hex="066C"/>
	<advance width="286"/>
	<outline>
		<contour>
			<point x="10" y="-132" type="line"/>
			<point x="243" y="-132" type="line"/>
			<point x="243" y="121" type="line"/>
			<point x="10" y="121" type="line"/>
		</contour>
	</outline>
</glyph>
<glyph name="behDotless-ar" format="2">
	<unicode hex="066E"/>
	<advance width="995"/>
	<outline>
		<contour>
			<point x="25" y="-15" type="line"/>
			<point x="970" y="-15" type="line"/>
			<point x="970" y="492" type="line"/>
			<point x="25" y="492" type="line"/>
		</contour>
	</outline>
</glyph>
<glyph name="qafDotless-ar" format="2">
	<unicode hex="066F"/>
	<advance width="718"/>
	<outline>
		<contour>
			<point x="25" y="-215" type="line"/>
			<point x="693" y="-215" type="line"/>
			<point x="693" y="520" type="line"/>
			<point x="25" y="520" type="line"/>
		</contour>
	</outline>
</glyph>
<glyph name="fehDotless-ar" format="2">
	<unicode hex="06A1"/>
	<advance width="995"/>
	<outline>
		<contour>
			<point x="25" y="-15" type="line"/>
			<point x="970" y="-15" type="line"/>
			<point x="970" y="682" type="line"/>
			<point x="25" y="682" type="line"/>
		</contour>
	</outline>
	<anchor name="bottom" x="498" y="-15"/>
	<anchor name="top" x="789" y="682"/>
</glyph>
<glyph name="keheh-ar" format="2">
	<unicode hex="06A9"/>
	<advance width="770"/>
	<outline>
		<contour>
			<point x="25" y="-15" type="line"/>
			<point x="901" y="-15" type="line"/>
			<point x="901" y="836" type="line"/>
			<point x="25" y="836" type="line"/>
		</contour>
	</outline>
</glyph>
<glyph name="noonghunna-ar" format="2">
	<unicode hex="06BA"/>
	<advance width="738"/>
	<outline>
		<contour>
			<point x="25" y="-140" type="line"/>
			<point x="733" y="-140" type="line"/>
			<point x="733" y="492" type="line"/>
			<point x="25" y="492" type="line"/>
		</contour>
	</outline>
	<anchor name="bottom" x="369" y="-138"/>
	<anchor name="top" x="350" y="320"/>
</glyph>
<glyph name="hehDoachashmee-ar" format="2">
	<unicode hex="06BE"/>
	<advance width="865"/>
	<outline>
		<contour>
			<point x="10" y="-66" type="line"/>
			<point x="840" y="-66" type="line"/>
			<point x="840" y="631" type="line"/>
			<point x="10" y="631" type="line"/>
		</contour>
	</outline>
</glyph>
<glyph name="yehbarree-ar" format="2">
	<unicode hex="06D2"/>
	<advance width="857"/>
	<outline>
		<contour>
			<point x="20" y="0" type="line"/>
			<point x="857" y="0" type="line"/>
			<point x="857" y="494" type="line"/>
			<point x="20" y="494" type="line"/>
		</contour>
	</outline>
	<anchor name="bottom" x="374" y="0"/>
	<anchor name="top" x="417" y="494"/>
</glyph>
<glyph name="fullstop-ar" format="2">
	<unicode hex="06D4"/>
	<advance width="493"/>
	<outline>
		<contour>
			<point x="10" y="0" type="line"/>
			<point x="443" y="0" type="line"/>
			<point x="443" y="200" type="line"/>
			<point x="10" y="200" type="line"/>
		</contour>
	</outline>
</glyph>
<glyph name="fourFarsi-ar" format="2">
	<unicode hex="06F4"/>
	<advance width="531"/>
	<outline>
		<contour>
			<point x="15" y="-15" type="line"/>
			<point x="526" y="-15" type="line"/>
			<point x="526" y="715" type="line"/>
			<point x="15" y="715" type="line"/>
		</contour>
		<contour>
			<point x="15" y="-15" type="line"/>
			<point x="526" y="-15" type="line"/>
			<point x="526" y="715" type="line"/>
			<point x="15" y="715" type="line"/>
		</contour>
	</outline>
</glyph>
<glyph name="fiveFarsi-ar" format="2">
	<unicode hex="06F5"/>
	<advance width="524"/>
	<outline>
		<contour>
			<point x="25" y="-10" type="line"/>
			<point x="499" y="-10" type="line"/>
			<point x="499" y="707" type="line"/>
			<point x="25" y="707" type="line"/>
		</contour>
	</outline>
</glyph>
<glyph name="sixFarsi-ar" format="2">
	<unicode hex="06F6"/>
	<advance width="464"/>
	<outline>
		<contour>
			<point x="20.1068845615" y="-15" type="line"/>
			<point x="454" y="-15" type="line"/>
			<point x="454" y="705" type="line"/>
			<point x="20.1068845615" y="705" type="line"/>
		</contour>
	</outline>
</glyph>
<glyph name="parenleft-ar" format="2">
	<unicode hex="FD3E"/>
	<advance width="443"/>
	<outline>
		<contour>
			<point x="40" y="-231" type="line"/>
			<point x="428" y="-231" type="line"/>
			<point x="428" y="755" type="line"/>
			<point x="40" y="755" type="line"/>
		</contour>
		<contour>
			<point x="40" y="-231" type="line"/>
			<point x="428" y="-231" type="line"/>
			<point x="428" y="755" type="line"/>
			<point x="40" y="755" type="line"/>
		</contour>
		<contour>
			<point x="40" y="-231" type="line"/>
			<point x="428" y="-231" type="line"/>
			<point x="428" y="755" type="line"/>
			<point x="40" y="755" type="line"/>
		</contour>
		<contour>
			<point x="40" y="-231" type="line"/>
			<point x="428" y="-231" type="line"/>
			<point x="428" y="755" type="line"/>
			<point x="40" y="755" type="line"/>
		</contour>
		<contour>
			<point x="40" y="-231" type="line"/>
			<point x="428" y="-231" type="line"/>
			<point x="428" y="755" type="line"/>
			<point x="40" y="755" type="line"/>
		</contour>
	</outline>
</glyph>
<glyph name="rial" format="2">
	<unicode hex="FDFC"/>
	<advance width="1225"/>
	<outline>
		<contour>
			<point x="25" y="-221" type="line"/>
			<point x="1200" y="-221" type="line"/>
			<point x="1200" y="779" type="line"/>
			<point x="25" y="779" type="line"/>
		</contour>
		<contour>
			<point x="25" y="-221" type="line"/>
			<point x="1200" y="-221" type="line"/>
			<point x="1200" y="779" type="line"/>
			<point x="25" y="779" type="line"/>
		</contour>
		<contour>
			<point x="25" y="-221" type="line"/>
			<point x="1200" y="-221" type="line"/>
			<point x="1200" y="779" type="line"/>
			<point x="25" y="779" type="line"/>
		</contour>
		<contour>
			<point x="25" y="-221" type="line"/>
			<point x="1200" y="-221" type="line"/>
			<point x="1200" y="779" type="line"/>
			<point x="25" y="779" type="line"/>
		</contour>
		<contour>
			<point x="25" y="-221" type="line"/>
			<point x="1200" y="-221" type="line"/>
			<point x="1200" y="779" type="line"/>
			<point x="25" y="779" type="line"/>
		</contour>
	</outline>
</glyph>
<glyph name="_alefMaksura__noonghunna-ar.fina" format="2">
	<advance width="1092"/>
	<outline>
		<contour>
			<point x="25" y="-140" type="line"/>
			<point x="1092" y="-140" type="line"/>
			<point x="1092" y="530" type="line"/>
			<point x="25" y="530" type="line"/>
		</contour>
	</outline>
	<anchor name="bottom_1" x="836" y="0"/>
	<anchor name="bottom_2" x="334" y="-140"/>
	<anchor name="top_1" x="893" y="530"/>
	<anchor name="top_2" x="350" y="320"/>
</glyph>
<glyph name="_alefMaksura_hah-ar" format="2">
	<advance width="614"/>
	<outline>
		<contour>
			<point x="25" y="-399" type="line"/>
			<point x="634" y="-399" type="line"/>
			<point x="634" y="740" type="line"/>
			<point x="25" y="740" type="line"/>
		</contour>
		<contour>
			<point x="25" y="-399" type="line"/>
			<point x="634" y="-399" type="line"/>
			<point x="634" y="740" type="line"/>
			<point x="25" y="740" type="line"/>
		</contour>
	</outline>
</glyph>
<glyph name="_alefMaksura_hah-ar.init" format="2">
	<advance width="661"/>
	<outline>
		<contour>
			<point x="-10" y="0" type="line"/>
			<point x="661" y="0" type="line"/>
			<point x="661" y="746" type="line"/>
			<point x="-10" y="746" type="line"/>
		</contour>
	</outline>
	<anchor name="bottom_1" x="509" y="146"/>
	<anchor name="bottom_2" x="172" y="0"/>
	<anchor name="top_1" x="442" y="746"/>
	<anchor name="top_2" x="110" y="511"/>
</glyph>
<glyph name="_alefMaksura_meem-ar.calt1" format="2">
	<advance width="977"/>
	<outline>
		<contour>
			<point x="25" y="-105" type="line"/>
			<point x="945" y="-105" type="line"/>
			<point x="945" y="571" type="line"/>
			<point x="25" y="571" type="line"/>
		</contour>
		<contour>
			<point x="25" y="-105" type="line"/>
			<point x="945" y="-105" type="line"/>
			<point x="945" y="571" type="line"/>
			<point x="25" y="571" type="line"/>
		</contour>
	</outline>
</glyph>
<glyph name="_alefMaksura_meem-ar.fina" format="2">
	<advance width="985"/>
	<outline>
		<contour>
			<point x="25" y="-204" type="line"/>
			<point x="985" y="-204" type="line"/>
			<point x="985" y="382" type="line"/>
			<point x="25" y="382" type="line"/>
		</contour>
		<contour>
			<point x="25" y="-204" type="line"/>
			<point x="985" y="-204" type="line"/>
			<point x="985" y="382" type="line"/>
			<point x="25" y="382" type="line"/>
		</contour>
	</outline>
	<anchor name="bottom_1" x="894" y="0"/>
	<anchor name="bottom_2" x="662" y="-184"/>
	<anchor name="bottom_3" x="965" y="0"/>
	<anchor name="top_1" x="773" y="383"/>
	<anchor name="top_2" x="438" y="231"/>
</glyph>
<glyph name="_alefMaksura_meem-ar" format="2">
	<advance width="915"/>
	<outline>
		<contour>
			<point x="25" y="-105" type="line"/>
			<point x="905" y="-105" type="line"/>
			<point x="905" y="571" type="line"/>
			<point x="25" y="571" type="line"/>
		</contour>
		<contour>
			<point x="25" y="-105" type="line"/>
			<point x="905" y="-105" type="line"/>
			<point x="905" y="571" type="line"/>
			<point x="25" y="571" type="line"/>
		</contour>
	</outline>
</glyph>
<glyph name="_alefMaksura_meem-ar.init.calt1" format="2">
	<advance width="604"/>
	<outline>
		<contour>
			<point x="-10" y="-105" type="line"/>
			<point x="572" y="-105" type="line"/>
			<point x="572" y="571" type="line"/>
			<point x="-10" y="571" type="line"/>
		</contour>
		<contour>
			<point x="-10" y="-105" type="line"/>
			<point x="572" y="-105" type="line"/>
			<point x="572" y="571" type="line"/>
			<point x="-10" y="571" type="line"/>
		</contour>
	</outline>
</glyph>
<glyph name="_alefMaksura_meem-ar.init.calt2" format="2">
	<advance width="714"/>
	<outline>
		<contour>
			<point x="-10" y="-105" type="line"/>
			<point x="591" y="-105" type="line"/>
			<point x="591" y="571" type="line"/>
			<point x="-10" y="571" type="line"/>
		</contour>
		<contour>
			<point x="-10" y="-105" type="line"/>
			<point x="591" y="-105" type="line"/>
			<point x="591" y="571" type="line"/>
			<point x="-10" y="571" type="line"/>
		</contour>
	</outline>
</glyph>
<glyph name="_alefMaksura_meem-ar.init" format="2">
	<advance width="542"/>
	<outline>
		<contour>
			<point x="-10" y="-105" type="line"/>
			<point x="532" y="-105" type="line"/>
			<point x="532" y="571" type="line"/>
			<point x="-10" y="571" type="line"/>
		</contour>
		<contour>
			<point x="-10" y="-105" type="line"/>
			<point x="532" y="-105" type="line"/>
			<point x="532" y="571" type="line"/>
			<point x="-10" y="571" type="line"/>
		</contour>
	</outline>
	<anchor name="bottom_1" x="483" y="42"/>
	<anchor name="bottom_2" x="289" y="-85"/>
	<anchor name="top_1" x="378" y="571"/>
	<anchor name="top_2" x="142" y="436"/>
</glyph>
<glyph name="_alefMaksura_meem-ar.medi" format="2">
	<advance width="527"/>
	<outline>
		<contour>
			<point x="-10" y="-204" type="line"/>
			<point x="527" y="-204" type="line"/>
			<point x="527" y="382" type="line"/>
			<point x="-10" y="382" type="line"/>
		</contour>
		<contour>
			<point x="-10" y="-204" type="line"/>
			<point x="527" y="-204" type="line"/>
			<point x="527" y="382" type="line"/>
			<point x="-10" y="382" type="line"/>
		</contour>
	</outline>
	<anchor name="bottom_1" x="433" y="0"/>
	<anchor name="bottom_2" x="224" y="-184"/>
	<anchor name="bottom_3" x="507" y="0"/>
	<anchor name="top_1" x="305" y="383"/>
	<anchor name="top_2" x="181" y="330"/>
</glyph>
<glyph name="_alefMaksura_reh-ar.fina.rlig" format="2">
	<advance width="677"/>
	<outline>
		<contour>
			<point x="-100" y="-225" type="line"/>
			<point x="677" y="-225" type="line"/>
			<point x="677" y="530" type="line"/>
			<point x="-100" y="530" type="line"/>
		</contour>
	</outline>
	<anchor name="bottom_1" x="421" y="0"/>
	<anchor name="bottom_2" x="162" y="-225"/>
	<anchor name="top_1" x="508" y="530"/>
	<anchor name="top_2" x="194" y="440"/>
</glyph>
<glyph name="_alefmini-ar" format="2">
	<advance width="73"/>
	<outline>
		<contour>
			<point x="10" y="59" type="line"/>
			<point x="53" y="59" type="line"/>
			<point x="53" y="225" type="line"/>
			<point x="10" y="225" type="line"/>
		</contour>
	</outline>
</glyph>
<glyph name="_behdotless_alefMaksura-ar.fina" format="2">
	<advance width="916"/>
	<outline>
		<contour>
			<point x="25" y="-233" type="line"/>
			<point x="916" y="-233" type="line"/>
			<point x="916" y="440" type="line"/>
			<point x="25" y="440" type="line"/>
		</contour>
	</outline>
</glyph>
<glyph name="_behdotless_alefMaksura-ar" format="2">
	<advance width="747"/>
	<outline>
		<contour>
			<point x="25" y="-140" type="line"/>
			<point x="727" y="-140" type="line"/>
			<point x="727" y="677" type="line"/>
			<point x="25" y="677" type="line"/>
		</contour>
	</outline>
</glyph>
<glyph name="_fehDotless_alefMaksura-ar" format="2">
	<advance width="747"/>
	<outline>
		<contour>
			<point x="25" y="-233" type="line"/>
			<point x="727" y="-233" type="line"/>
			<point x="727" y="744" type="line"/>
			<point x="25" y="744" type="line"/>
		</contour>
	</outline>
</glyph>
<glyph name="_hamza-ar" format="2">
	<advance width="224"/>
	<outline>
		<contour>
			<point x="22" y="33" type="line"/>
			<point x="197" y="33" type="line"/>
			<point x="197" y="259" type="line"/>
			<point x="22" y="259" type="line"/>
		</contour>
	</outline>
</glyph>
<glyph name="_part.connection-ar" format="2">
	<advance width="254"/>
	<outline>
		<contour>
			<point x="-75" y="0" type="line"/>
			<point x="254" y="0" type="line"/>
			<point x="254" y="200" type="line"/>
			<point x="-75" y="200" type="line"/>
		</contour>
	</outline>
</glyph>
<glyph name="_part.connectionFlat-ar" format="2">
	<advance width="387"/>
	<outline>
		<contour>
			<point x="167" y="0" type="line"/>
			<point x="387" y="0" type="line"/>
			<point x="387" y="200" type="line"/>
			<point x="167" y="200" type="line"/>
		</contour>
	</outline>
</glyph>
<glyph name="_part.connectionHah-ar" format="2">
	<advance width="610"/>
	<outline>
		<contour>
			<point x="462" y="0" type="line"/>
			<point x="610" y="0" type="line"/>
			<point x="610" y="330" type="line"/>
			<point x="462" y="330" type="line"/>
		</contour>
	</outline>
</glyph>
<glyph name="ain-ar.fina" format="2">
	<advance width="617"/>
	<outline>
		<contour>
			<point x="25" y="-400" type="line"/>
			<point x="626" y="-400" type="line"/>
			<point x="626" y="582" type="line"/>
			<point x="25" y="582" type="line"/>
		</contour>
	</outline>
</glyph>
<glyph name="ain-ar.init" format="2">
	<advance width="540"/>
	<outline>
		<contour>
			<point x="-10" y="0" type="line"/>
			<point x="532" y="0" type="line"/>
			<point x="532" y="597" type="line"/>
			<point x="-10" y="597" type="line"/>
		</contour>
	</outline>
</glyph>
<glyph name="ain-ar.medi" format="2">
	<advance width="636"/>
	<outline>
		<contour>
			<point x="-10" y="0" type="line"/>
			<point x="636" y="0" type="line"/>
			<point x="636" y="492" type="line"/>
			<point x="-10" y="492" type="line"/>
		</contour>
	</outline>
	<anchor name="bottom" x="323" y="0"/>
	<anchor name="top" x="359" y="492"/>
</glyph>
<glyph name="ain_alefMaksura-ar.rlig" format="2">
	<advance width="1040"/>
	<outline>
		<contour>
			<point x="25" y="-233" type="line"/>
			<point x="1032" y="-233" type="line"/>
			<point x="1032" y="708" type="line"/>
			<point x="25" y="708" type="line"/>
		</contour>
	</outline>
</glyph>
<glyph name="alef-ar.fina" format="2">
	<advance width="254"/>
	<outline>
		<contour>
			<point x="48" y="0" type="line"/>
			<point x="254" y="0" type="line"/>
			<point x="254" y="779" type="line"/>
			<point x="48" y="779" type="line"/>
		</contour>
	</outline>
</glyph>
<glyph name="alef-ar.fina.short" format="2">
	<advance width="254"/>
	<outline>
		<contour>
			<point x="48" y="0" type="line"/>
			<point x="254" y="0" type="line"/>
			<point x="254" y="705" type="line"/>
			<point x="48" y="705" type="line"/>
		</contour>
	</outline>
</glyph>
<glyph name="alef-ar.short" format="2">
	<advance width="215"/>
	<outline>
		<contour>
			<point x="48" y="-14" type="line"/>
			<point x="210" y="-14" type="line"/>
			<point x="210" y="705" type="line"/>
			<point x="48" y="705" type="line"/>
		</contour>
	</outline>
</glyph>
<glyph name="alefMaksura-ar.fina" format="2">
	<advance width="742"/>
	<outline>
		<contour>
			<point x="25" y="-233" type="line"/>
			<point x="742" y="-233" type="line"/>
			<point x="742" y="319" type="line"/>
			<point x="25" y="319" type="line"/>
		</contour>
		<contour>
			<point x="25" y="-233" type="line"/>
			<point x="742" y="-233" type="line"/>
			<point x="742" y="319" type="line"/>
			<point x="25" y="319" type="line"/>
		</contour>
	</outline>
	<anchor name="bottom" x="374" y="-233"/>
	<anchor name="top" x="109" y="319"/>
</glyph>
<glyph name="alefMaksura_heh-ar.init" format="2">
	<advance width="666"/>
	<outline>
		<contour>
			<point x="-10" y="-241" type="line"/>
			<point x="646" y="-241" type="line"/>
			<point x="646" y="440" type="line"/>
			<point x="-10" y="440" type="line"/>
		</contour>
	</outline>
	<anchor name="bottom_1" x="527" y="184"/>
	<anchor name="bottom_2" x="188" y="-225"/>
	<anchor name="top_1" x="492" y="440"/>
	<anchor name="top_2" x="148" y="330"/>
</glyph>
<glyph name="alefMaksura_heh-ar.medi" format="2">
	<advance width="612"/>
	<outline>
		<contour>
			<point x="-10" y="-241" type="line"/>
			<point x="612" y="-241" type="line"/>
			<point x="612" y="382" type="line"/>
			<point x="-10" y="382" type="line"/>
		</contour>
	</outline>
	<anchor name="bottom_1" x="467" y="0"/>
	<anchor name="bottom_2" x="188" y="-225"/>
	<anchor name="bottom_3" x="497" y="0"/>
	<anchor name="top_1" x="391" y="382"/>
	<anchor name="top_2" x="148" y="330"/>
</glyph>
<glyph name="allah-ar" format="2">
	<advance width="1263"/>
	<outline>
		<contour>
			<point x="35" y="-14" type="line"/>
			<point x="1258" y="-14" type="line"/>
			<point x="1258" y="934" type="line"/>
			<point x="35" y="934" type="line"/>
		</contour>
		<contour>
			<point x="35" y="-14" type="line"/>
			<point x="1258" y="-14" type="line"/>
			<point x="1258" y="934" type="line"/>
			<point x="35" y="934" type="line"/>
		</contour>
		<contour>
			<point x="35" y="-14" type="line"/>
			<point x="1258" y="-14" type="line"/>
			<point x="1258" y="934" type="line"/>
			<point x="35" y="934" type="line"/>
		</contour>
		<contour>
			<point x="35" y="-14" type="line"/>
			<point x="1258" y="-14" type="line"/>
			<point x="1258" y="934" type="line"/>
			<point x="35" y="934" type="line"/>
		</contour>
		<component base="shaddaAlefabove-ar" xOffset="524" yOffset="539"/>
	</outline>
</glyph>
<glyph name="behDotless-ar.fina" format="2">
	<advance width="1063"/>
	<outline>
		<contour>
			<point x="25" y="-15" type="line"/>
			<point x="1063" y="-15" type="line"/>
			<point x="1063" y="480" type="line"/>
			<point x="25" y="480" type="line"/>
		</contour>
	</outline>
	<anchor name="bottom" x="495" y="-15"/>
	<anchor name="top" x="495" y="270"/>
</glyph>
<glyph name="behDotless-ar.init" format="2">
	<advance width="247"/>
	<outline>
		<contour>
			<point x="-10" y="0" type="line"/>
			<point x="242" y="0" type="line"/>
			<point x="242" y="492" type="line"/>
			<point x="-10" y="492" type="line"/>
		</contour>
	</outline>
	<anchor name="bottom" x="102" y="0"/>
	<anchor name="bottom_1" x="47" y="0"/>
	<anchor name="top" x="119" y="492"/>
</glyph>
<glyph name="behDotless-ar.medi.calt" format="2">
	<advance width="347"/>
	<outline>
		<contour>
			<point x="-10" y="0" type="line"/>
			<point x="347" y="0" type="line"/>
			<point x="347" y="530" type="line"/>
			<point x="-10" y="530" type="line"/>
		</contour>
	</outline>
	<anchor name="bottom" x="169" y="0"/>
	<anchor name="top" x="140" y="530"/>
</glyph>
<glyph name="behDotless-ar.medi" format="2">
	<advance width="282"/>
	<outline>
		<contour>
			<point x="-10" y="0" type="line"/>
			<point x="282" y="0" type="line"/>
			<point x="282" y="330" type="line"/>
			<point x="-10" y="330" type="line"/>
		</contour>
	</outline>
	<anchor name="bottom" x="139" y="0"/>
	<anchor name="top" x="151" y="330"/>
</glyph>
<glyph name="commabelow-ar" format="2">
	<advance width="246"/>
	<outline>
		<contour>
			<point x="38" y="-35" type="line"/>
			<point x="215" y="-35" type="line"/>
			<point x="215" y="234" type="line"/>
			<point x="38" y="234" type="line"/>
		</contour>
	</outline>
</glyph>
<glyph name="dal-ar.fina" format="2">
	<advance width="604"/>
	<outline>
		<contour>
			<point x="25" y="-15" type="line"/>
			<point x="604" y="-15" type="line"/>
			<point x="604" y="610" type="line"/>
			<point x="25" y="610" type="line"/>
		</contour>
	</outline>
	<anchor name="bottom" x="297" y="0"/>
	<anchor name="top" x="366" y="610"/>
</glyph>
<glyph name="dot-ar" format="2">
	<advance width="142"/>
	<outline>
		<contour>
			<point x="-12" y="46" type="line"/>
			<point x="154" y="46" type="line"/>
			<point x="154" y="212" type="line"/>
			<point x="-12" y="212" type="line"/>
		</contour>
	</outline>
</glyph>
<glyph name="fehDotless-ar.fina" format="2">
	<advance width="1065"/>
	<outline>
		<contour>
			<point x="25" y="-15" type="line"/>
			<point x="1065" y="-15" type="line"/>
			<point x="1065" y="600" type="line"/>
			<point x="25" y="600" type="line"/>
		</contour>
		<contour>
			<point x="25" y="-15" type="line"/>
			<point x="1065" y="-15" type="line"/>
			<point x="1065" y="600" type="line"/>
			<point x="25" y="600" type="line"/>
		</contour>
	</outline>
</glyph>
<glyph name="fehDotless-ar.init" format="2">
	<advance width="416"/>
	<outline>
		<contour>
			<point x="-10" y="0" type="line"/>
			<point x="391" y="0" type="line"/>
			<point x="391" y="682" type="line"/>
			<point x="-10" y="682" type="line"/>
		</contour>
	</outline>
</glyph>
<glyph name="fehDotless-ar.medi" format="2">
	<advance width="398"/>
	<outline>
		<contour>
			<point x="-10" y="0" type="line"/>
			<point x="398" y="0" type="line"/>
			<point x="398" y="600" type="line"/>
			<point x="-10" y="600" type="line"/>
		</contour>
	</outline>
	<anchor name="bottom" x="204" y="0"/>
	<anchor name="top" x="209" y="600"/>
</glyph>
<glyph name="fourFarsi-ar.urdu" format="2">
	<advance width="537"/>
	<outline>
		<contour>
			<point x="14.9904882513" y="-15" type="line"/>
			<point x="532" y="-15" type="line"/>
			<point x="532" y="705" type="line"/>
			<point x="14.9904882513" y="705" type="line"/>
		</contour>
	</outline>
</glyph>
<glyph name="gafsarkashabove-ar" format="2">
	<outline>
		<contour>
			<point x="102" y="519" type="line"/>
			<point x="449" y="519" type="line"/>
			<point x="449" y="674" type="line"/>
			<point x="102" y="674" type="line"/>
		</contour>
	</outline>
	<anchor name="_kafbar" x="150" y="492"/>
	<anchor name="top" x="108" y="547"/>
</glyph>
<glyph name="hah-ar.calt" format="2">
	<advance width="614"/>
	<outline>
		<contour>
			<point x="25" y="-400" type="line"/>
			<point x="634" y="-400" type="line"/>
			<point x="634" y="514.756688019" type="line"/>
			<point x="25" y="514.756688019" type="line"/>
		</contour>
	</outline>
	<anchor name="#entry" x="615" y="0"/>
	<anchor name="bottom" x="-1" y="-294"/>
	<anchor name="center" x="318" y="12"/>
	<anchor name="top" x="298" y="517"/>
</glyph>
<glyph name="hah-ar.init.calt" format="2">
	<advance width="661"/>
	<outline>
		<contour>
			<point x="-10" y="-72" type="line"/>
			<point x="661" y="-72" type="line"/>
			<point x="661" y="480" type="line"/>
			<point x="-10" y="480" type="line"/>
		</contour>
	</outline>
	<anchor name="#entry" x="671" y="0"/>
	<anchor name="bottom" x="336" y="77"/>
	<anchor name="top" x="336" y="480"/>
</glyph>
<glyph name="hah-ar.init" format="2">
	<advance width="661"/>
	<outline>
		<contour>
			<point x="-10" y="0" type="line"/>
			<point x="661" y="0" type="line"/>
			<point x="661" y="480" type="line"/>
			<point x="-10" y="480" type="line"/>
		</contour>
	</outline>
</glyph>
<glyph name="hah_alefMaksura-ar.rlig" format="2">
	<advance width="1073"/>
	<outline>
		<contour>
			<point x="25" y="-233" type="line"/>
			<point x="1073" y="-233" type="line"/>
			<point x="1073" y="574" type="line"/>
			<point x="25" y="574" type="line"/>
		</contour>
	</outline>
</glyph>
<glyph name="heh-ar.fina" format="2">
	<advance width="523"/>
	<outline>
		<contour>
			<point x="35" y="0" type="line"/>
			<point x="523" y="0" type="line"/>
			<point x="523" y="669" type="line"/>
			<point x="35" y="669" type="line"/>
		</contour>
	</outline>
	<anchor name="bottom" x="220" y="35"/>
	<anchor name="top" x="212" y="548"/>
	<anchor name="top_1" x="220" y="460"/>
</glyph>
<glyph name="heh-ar.init" format="2">
	<advance width="588"/>
	<outline>
		<contour>
			<point x="-10" y="-66" type="line"/>
			<point x="558" y="-66" type="line"/>
			<point x="558" y="631" type="line"/>
			<point x="-10" y="631" type="line"/>
		</contour>
	</outline>
	<anchor name="bottom" x="292" y="-3"/>
	<anchor name="top" x="252" y="627"/>
</glyph>
<glyph name="heh-ar.medi" format="2">
	<advance width="432"/>
	<outline>
		<contour>
			<point x="-10" y="-233" type="line"/>
			<point x="432" y="-233" type="line"/>
			<point x="432" y="616" type="line"/>
			<point x="-10" y="616" type="line"/>
		</contour>
	</outline>
</glyph>
<glyph name="heh-ar.medi.ss02" format="2">
	<advance width="432"/>
	<outline>
		<contour>
			<point x="-10" y="-233" type="line"/>
			<point x="432" y="-233" type="line"/>
			<point x="432" y="616" type="line"/>
			<point x="-10" y="616" type="line"/>
		</contour>
		<contour>
			<point x="-10" y="-233" type="line"/>
			<point x="432" y="-233" type="line"/>
			<point x="432" y="616" type="line"/>
			<point x="-10" y="616" type="line"/>
		</contour>
	</outline>
	<anchor name="bottom" x="219" y="-233"/>
	<anchor name="top" x="219" y="586"/>
</glyph>
<glyph name="hehDoachashmee-ar.fina" format="2">
	<advance width="764"/>
	<outline>
		<contour>
			<point x="10" y="-233" type="line"/>
			<point x="764" y="-233" type="line"/>
			<point x="764" y="506" type="line"/>
			<point x="10" y="506" type="line"/>
		</contour>
	</outline>
</glyph>
<glyph name="heh_alefMaksura-ar.rlig" format="2">
	<advance width="1172"/>
	<outline>
		<contour>
			<point x="25" y="-225" type="line"/>
			<point x="1142" y="-225" type="line"/>
			<point x="1142" y="773" type="line"/>
			<point x="25" y="773" type="line"/>
		</contour>
		<contour>
			<point x="25" y="-225" type="line"/>
			<point x="1142" y="-225" type="line"/>
			<point x="1142" y="773" type="line"/>
			<point x="25" y="773" type="line"/>
		</contour>
	</outline>
	<anchor name="bottom_1" x="885" y="100"/>
	<anchor name="bottom_2" x="374" y="-225"/>
	<anchor name="top_1" x="854" y="773"/>
	<anchor name="top_2" x="109" y="327"/>
</glyph>
<glyph name="hehgoal-ar.fina" format="2">
	<advance width="649"/>
	<outline>
		<contour>
			<point x="-10" y="0" type="line"/>
			<point x="649" y="0" type="line"/>
			<point x="649" y="440" type="line"/>
			<point x="-10" y="440" type="line"/>
		</contour>
	</outline>
	<anchor name="bottom" x="328" y="0"/>
	<anchor name="top" x="332" y="440"/>
</glyph>
<glyph name="hehgoal-ar.init" format="2">
	<advance width="433"/>
	<outline>
		<contour>
			<point x="-10" y="-305" type="line"/>
			<point x="408" y="-305" type="line"/>
			<point x="408" y="440" type="line"/>
			<point x="-10" y="440" type="line"/>
		</contour>
		<contour>
			<point x="-10" y="-305" type="line"/>
			<point x="408" y="-305" type="line"/>
			<point x="408" y="440" type="line"/>
			<point x="-10" y="440" type="line"/>
		</contour>
		<contour>
			<point x="-10" y="-305" type="line"/>
			<point x="408" y="-305" type="line"/>
			<point x="408" y="440" type="line"/>
			<point x="-10" y="440" type="line"/>
		</contour>
		<component base="commabelow-ar" xOffset="126" yOffset="-270"/>
	</outline>
</glyph>
<glyph name="kaf-ar.fina" format="2">
	<advance width="943"/>
	<outline>
		<contour>
			<point x="25" y="-15" type="line"/>
			<point x="943" y="-15" type="line"/>
			<point x="943" y="789" type="line"/>
			<point x="25" y="789" type="line"/>
		</contour>
		<contour>
			<point x="25" y="-15" type="line"/>
			<point x="943" y="-15" type="line"/>
			<point x="943" y="789" type="line"/>
			<point x="25" y="789" type="line"/>
		</contour>
	</outline>
</glyph>
<glyph name="kaf-ar.init" format="2">
	<advance width="390"/>
	<outline>
		<contour>
			<point x="-10" y="0" type="line"/>
			<point x="521" y="0" type="line"/>
			<point x="521" y="836" type="line"/>
			<point x="-10" y="836" type="line"/>
		</contour>
	</outline>
</glyph>
<glyph name="kaf-ar.init.ss01" format="2">
	<advance width="998"/>
	<outline>
		<contour>
			<point x="-10" y="0" type="line"/>
			<point x="973" y="0" type="line"/>
			<point x="973" y="761" type="line"/>
			<point x="-10" y="761" type="line"/>
		</contour>
	</outline>
	<anchor name="#entry" x="998" y="0"/>
	<anchor name="bottom" x="499" y="0"/>
	<anchor name="top" x="253" y="695"/>
</glyph>
<glyph name="kaf-ar.medi" format="2">
	<advance width="500"/>
	<outline>
		<contour>
			<point x="-10" y="0" type="line"/>
			<point x="521" y="0" type="line"/>
			<point x="521" y="836" type="line"/>
			<point x="-10" y="836" type="line"/>
		</contour>
	</outline>
</glyph>
<glyph name="kaf-ar.ss01" format="2">
	<advance width="1310"/>
	<outline>
		<contour>
			<point x="10" y="0" type="line"/>
			<point x="1285" y="0" type="line"/>
			<point x="1285" y="761" type="line"/>
			<point x="10" y="761" type="line"/>
		</contour>
	</outline>
	<anchor name="#entry" x="1310" y="0"/>
	<anchor name="bottom" x="811" y="0"/>
	<anchor name="top" x="565" y="695"/>
</glyph>
<glyph name="kaf_alefMaksura-ar.fina.rlig" format="2">
	<advance width="894"/>
	<outline>
		<contour>
			<point x="25" y="-300" type="line"/>
			<point x="915" y="-300" type="line"/>
			<point x="915" y="836" type="line"/>
			<point x="25" y="836" type="line"/>
		</contour>
	</outline>
</glyph>
<glyph name="kaf_alefMaksura-ar.rlig" format="2">
	<advance width="742"/>
	<outline>
		<contour>
			<point x="25" y="-233" type="line"/>
			<point x="822" y="-233" type="line"/>
			<point x="822" y="903" type="line"/>
			<point x="25" y="903" type="line"/>
		</contour>
	</outline>
</glyph>
<glyph name="keheh-ar.fina" format="2">
	<advance width="880"/>
	<outline>
		<contour>
			<point x="25" y="-15" type="line"/>
			<point x="901" y="-15" type="line"/>
			<point x="901" y="836" type="line"/>
			<point x="25" y="836" type="line"/>
		</contour>
	</outline>
	<anchor name="bottom" x="385" y="0"/>
	<anchor name="kafbar" x="521" y="707"/>
	<anchor name="top" x="90" y="480"/>
</glyph>
<glyph name="lam-ar.fina" format="2">
	<advance width="775"/>
	<outline>
		<contour>
			<point x="25" y="-140" type="line"/>
			<point x="775" y="-140" type="line"/>
			<point x="775" y="779" type="line"/>
			<point x="25" y="779" type="line"/>
		</contour>
	</outline>
	<anchor name="bottom" x="334" y="-140"/>
	<anchor name="top" x="350" y="430"/>
</glyph>
<glyph name="lam-ar.init" format="2">
	<advance width="245"/>
	<outline>
		<contour>
			<point x="-10" y="0" type="line"/>
			<point x="240" y="0" type="line"/>
			<point x="240" y="779" type="line"/>
			<point x="-10" y="779" type="line"/>
		</contour>
	</outline>
	<anchor name="bottom" x="146" y="0"/>
	<anchor name="top" x="146" y="729"/>
</glyph>
<glyph name="lam-ar.medi" format="2">
	<advance width="282"/>
	<outline>
		<contour>
			<point x="-10" y="0" type="line"/>
			<point x="282" y="0" type="line"/>
			<point x="282" y="779" type="line"/>
			<point x="-10" y="779" type="line"/>
		</contour>
	</outline>
</glyph>
<glyph name="lam_alef-ar.fina" format="2">
	<advance width="601"/>
	<outline>
		<contour>
			<point x="-10" y="0" type="line"/>
			<point x="601" y="0" type="line"/>
			<point x="601" y="779" type="line"/>
			<point x="-10" y="779" type="line"/>
		</contour>
		<contour>
			<point x="-10" y="0" type="line"/>
			<point x="601" y="0" type="line"/>
			<point x="601" y="779" type="line"/>
			<point x="-10" y="779" type="line"/>
		</contour>
	</outline>
	<anchor name="bottom_1" x="463" y="0"/>
	<anchor name="bottom_2" x="193" y="0"/>
	<anchor name="top_1" x="461" y="732"/>
	<anchor name="top_2" x="249" y="611"/>
	<anchor name="top_3" x="303" y="637"/>
</glyph>
<glyph name="lam_alef-ar" format="2">
	<advance width="566"/>
	<outline>
		<contour>
			<point x="-10" y="0" type="line"/>
			<point x="561" y="0" type="line"/>
			<point x="561" y="779" type="line"/>
			<point x="-10" y="779" type="line"/>
		</contour>
		<contour>
			<point x="-10" y="0" type="line"/>
			<point x="561" y="0" type="line"/>
			<point x="561" y="779" type="line"/>
			<point x="-10" y="779" type="line"/>
		</contour>
	</outline>
	<anchor name="bottom_1" x="463" y="0"/>
	<anchor name="bottom_2" x="193" y="0"/>
	<anchor name="top_1" x="461" y="732"/>
	<anchor name="top_2" x="193" y="637"/>
	<anchor name="top_3" x="303" y="637"/>
</glyph>
<glyph name="lam_alefMaksura-ar.rlig" format="2">
	<advance width="747"/>
	<outline>
		<contour>
			<point x="25" y="-233" type="line"/>
			<point x="727" y="-233" type="line"/>
			<point x="727" y="779" type="line"/>
			<point x="25" y="779" type="line"/>
		</contour>
	</outline>
</glyph>
<glyph name="lam_hah-ar" format="2">
	<advance width="664"/>
	<outline>
		<contour>
			<point x="25" y="-399" type="line"/>
			<point x="684" y="-399" type="line"/>
			<point x="684" y="1004" type="line"/>
			<point x="25" y="1004" type="line"/>
		</contour>
	</outline>
</glyph>
<glyph name="lam_hah-ar.init" format="2">
	<advance width="661"/>
	<outline>
		<contour>
			<point x="-10" y="0" type="line"/>
			<point x="661" y="0" type="line"/>
			<point x="661" y="965" type="line"/>
			<point x="-10" y="965" type="line"/>
		</contour>
	</outline>
</glyph>
<glyph name="lam_meem-ar" format="2">
	<advance width="825"/>
	<outline>
		<contour>
			<point x="25" y="-103" type="line"/>
			<point x="795" y="-103" type="line"/>
			<point x="795" y="851" type="line"/>
			<point x="25" y="851" type="line"/>
		</contour>
		<contour>
			<point x="25" y="-103" type="line"/>
			<point x="795" y="-103" type="line"/>
			<point x="795" y="851" type="line"/>
			<point x="25" y="851" type="line"/>
		</contour>
	</outline>
</glyph>
<glyph name="lam_meem-ar.init" format="2">
	<advance width="447"/>
	<outline>
		<contour>
			<point x="-10" y="-105" type="line"/>
			<point x="422" y="-105" type="line"/>
			<point x="422" y="849" type="line"/>
			<point x="-10" y="849" type="line"/>
		</contour>
		<contour>
			<point x="-10" y="-105" type="line"/>
			<point x="422" y="-105" type="line"/>
			<point x="422" y="849" type="line"/>
			<point x="-10" y="849" type="line"/>
		</contour>
	</outline>
	<anchor name="bottom_1" x="468" y="38"/>
	<anchor name="bottom_2" x="289" y="-85"/>
	<anchor name="top_1" x="140" y="779"/>
	<anchor name="top_2" x="324" y="284"/>
</glyph>
<glyph name="lam_meem-ar.init.ss02" format="2">
	<advance width="673"/>
	<outline>
		<contour>
			<point x="-10" y="-45" type="line"/>
			<point x="648" y="-45" type="line"/>
			<point x="648" y="849" type="line"/>
			<point x="-10" y="849" type="line"/>
		</contour>
		<contour>
			<point x="-10" y="-45" type="line"/>
			<point x="648" y="-45" type="line"/>
			<point x="648" y="849" type="line"/>
			<point x="-10" y="849" type="line"/>
		</contour>
	</outline>
	<anchor name="bottom_1" x="289" y="-105"/>
	<anchor name="bottom_2" x="123" y="-105"/>
	<anchor name="top_1" x="274" y="284"/>
	<anchor name="top_2" x="252" y="779"/>
</glyph>
<glyph name="meem-ar.fina" format="2">
	<advance width="973"/>
	<outline>
		<contour>
			<point x="-80" y="-110" type="line"/>
			<point x="973" y="-110" type="line"/>
			<point x="973" y="440" type="line"/>
			<point x="-80" y="440" type="line"/>
		</contour>
	</outline>
</glyph>
<glyph name="meem-ar.init" format="2">
	<advance width="509"/>
	<outline>
		<contour>
			<point x="-10" y="0" type="line"/>
			<point x="479.220945522" y="0" type="line"/>
			<point x="479.220945522" y="520" type="line"/>
			<point x="-10" y="520" type="line"/>
		</contour>
	</outline>
	<anchor name="bottom" x="247" y="38"/>
	<anchor name="top" x="247" y="509"/>
</glyph>
<glyph name="meem-ar.medi" format="2">
	<advance width="616"/>
	<outline>
		<contour>
			<point x="-10" y="-75" type="line"/>
			<point x="616" y="-75" type="line"/>
			<point x="616" y="440" type="line"/>
			<point x="-10" y="440" type="line"/>
		</contour>
	</outline>
	<anchor name="bottom" x="308" y="-47"/>
	<anchor name="top" x="308" y="440"/>
</glyph>
<glyph name="noonghunna-ar.fina" format="2">
	<advance width="824"/>
	<outline>
		<contour>
			<point x="25" y="-140" type="line"/>
			<point x="824" y="-140" type="line"/>
			<point x="824" y="440" type="line"/>
			<point x="25" y="440" type="line"/>
		</contour>
	</outline>
</glyph>
<glyph name="qafDotless-ar.fina" format="2">
	<advance width="723"/>
	<outline>
		<contour>
			<point x="25" y="-250" type="line"/>
			<point x="723" y="-250" type="line"/>
			<point x="723" y="485" type="line"/>
			<point x="25" y="485" type="line"/>
		</contour>
	</outline>
	<anchor name="bottom" x="334" y="-250"/>
	<anchor name="top" x="498" y="485"/>
</glyph>
<glyph name="reh-ar.fina" format="2">
	<advance width="409"/>
	<outline>
		<contour>
			<point x="-100" y="-225" type="line"/>
			<point x="409" y="-225" type="line"/>
			<point x="409" y="440" type="line"/>
			<point x="-100" y="440" type="line"/>
		</contour>
	</outline>
</glyph>
<glyph name="sad-ar.init" format="2">
	<advance width="950"/>
	<outline>
		<contour>
			<point x="-10" y="-27" type="line"/>
			<point x="910" y="-27" type="line"/>
			<point x="910" y="492" type="line"/>
			<point x="-10" y="492" type="line"/>
		</contour>
	</outline>
	<anchor name="#entry" x="970" y="0"/>
	<anchor name="bottom" x="614" y="-15"/>
	<anchor name="top" x="536" y="492"/>
</glyph>
<glyph name="sad_heh-ar.init" format="2">
	<advance width="1159"/>
	<outline>
		<contour>
			<point x="-10" y="-241" type="line"/>
			<point x="1119" y="-241" type="line"/>
			<point x="1119" y="492" type="line"/>
			<point x="-10" y="492" type="line"/>
		</contour>
	</outline>
</glyph>
<glyph name="sad_meem-ar" format="2">
	<advance width="1532"/>
	<outline>
		<contour>
			<point x="25" y="-204" type="line"/>
			<point x="1492" y="-204" type="line"/>
			<point x="1492" y="492" type="line"/>
			<point x="25" y="492" type="line"/>
		</contour>
		<contour>
			<point x="25" y="-204" type="line"/>
			<point x="1492" y="-204" type="line"/>
			<point x="1492" y="492" type="line"/>
			<point x="25" y="492" type="line"/>
		</contour>
	</outline>
	<anchor name="#entry" x="1552" y="0"/>
	<anchor name="bottom_1" x="1105" y="-15"/>
	<anchor name="bottom_2" x="652" y="-204"/>
	<anchor name="top_1" x="1118" y="492"/>
	<anchor name="top_2" x="488" y="260"/>
</glyph>
<glyph name="sad_meem-ar.init" format="2">
	<advance width="1074"/>
	<outline>
		<contour>
			<point x="-10" y="-204" type="line"/>
			<point x="1034" y="-204" type="line"/>
			<point x="1034" y="492" type="line"/>
			<point x="-10" y="492" type="line"/>
		</contour>
		<contour>
			<point x="-10" y="-204" type="line"/>
			<point x="1034" y="-204" type="line"/>
			<point x="1034" y="492" type="line"/>
			<point x="-10" y="492" type="line"/>
		</contour>
	</outline>
	<anchor name="#entry" x="1094" y="0"/>
	<anchor name="bottom_1" x="647" y="-15"/>
	<anchor name="bottom_2" x="214" y="-204"/>
	<anchor name="top_1" x="660" y="492"/>
	<anchor name="top_2" x="220" y="382"/>
</glyph>
<glyph name="sad_reh-ar.rlig" format="2">
	<advance width="1166"/>
	<outline>
		<contour>
			<point x="-100" y="-225" type="line"/>
			<point x="1126" y="-225" type="line"/>
			<point x="1126" y="492" type="line"/>
			<point x="-100" y="492" type="line"/>
		</contour>
	</outline>
	<anchor name="#entry" x="1186" y="0"/>
	<anchor name="bottom_1" x="739" y="-15"/>
	<anchor name="bottom_2" x="162" y="-225"/>
	<anchor name="top_1" x="752" y="492"/>
	<anchor name="top_2" x="199" y="334"/>
</glyph>
<glyph name="seen-ar.fina" format="2">
	<advance width="1254"/>
	<outline>
		<contour>
			<point x="25" y="-300" type="line"/>
			<point x="1254" y="-300" type="line"/>
			<point x="1254" y="330" type="line"/>
			<point x="25" y="330" type="line"/>
		</contour>
		<contour>
			<point x="25" y="-300" type="line"/>
			<point x="1254" y="-300" type="line"/>
			<point x="1254" y="330" type="line"/>
			<point x="25" y="330" type="line"/>
		</contour>
	</outline>
</glyph>
<glyph name="seen-ar.init" format="2">
	<advance width="828"/>
	<outline>
		<contour>
			<point x="-10" y="0" type="line"/>
			<point x="803" y="0" type="line"/>
			<point x="803" y="440" type="line"/>
			<point x="-10" y="440" type="line"/>
		</contour>
		<contour>
			<point x="-10" y="0" type="line"/>
			<point x="803" y="0" type="line"/>
			<point x="803" y="440" type="line"/>
			<point x="-10" y="440" type="line"/>
		</contour>
	</outline>
	<anchor name="bottom" x="499" y="0"/>
	<anchor name="top" x="499" y="330"/>
</glyph>
<glyph name="seen-ar.medi" format="2">
	<advance width="911"/>
	<outline>
		<contour>
			<point x="-10" y="0" type="line"/>
			<point x="911" y="0" type="line"/>
			<point x="911" y="330" type="line"/>
			<point x="-10" y="330" type="line"/>
		</contour>
		<contour>
			<point x="-10" y="0" type="line"/>
			<point x="911" y="0" type="line"/>
			<point x="911" y="330" type="line"/>
			<point x="-10" y="330" type="line"/>
		</contour>
	</outline>
</glyph>
<glyph name="seen_alefMaksura-ar.rlig" format="2">
	<advance width="1331"/>
	<outline>
		<contour>
			<point x="25" y="-233" type="line"/>
			<point x="1306" y="-233" type="line"/>
			<point x="1306" y="440" type="line"/>
			<point x="25" y="440" type="line"/>
		</contour>
		<contour>
			<point x="25" y="-233" type="line"/>
			<point x="1306" y="-233" type="line"/>
			<point x="1306" y="440" type="line"/>
			<point x="25" y="440" type="line"/>
		</contour>
	</outline>
	<anchor name="bottom_1" x="1002" y="-1"/>
	<anchor name="bottom_2" x="377" y="-233"/>
	<anchor name="top_1" x="1002" y="330"/>
	<anchor name="top_2" x="109" y="319"/>
</glyph>
<glyph name="seen_heh-ar.init" format="2">
	<advance width="1017"/>
	<outline>
		<contour>
			<point x="-10" y="-241" type="line"/>
			<point x="992" y="-241" type="line"/>
			<point x="992" y="440" type="line"/>
			<point x="-10" y="440" type="line"/>
		</contour>
		<contour>
			<point x="-10" y="-241" type="line"/>
			<point x="992" y="-241" type="line"/>
			<point x="992" y="440" type="line"/>
			<point x="-10" y="440" type="line"/>
		</contour>
	</outline>
	<anchor name="bottom_1" x="745" y="0"/>
	<anchor name="bottom_2" x="188" y="-225"/>
	<anchor name="top_1" x="688" y="330"/>
	<anchor name="top_2" x="148" y="330"/>
</glyph>
<glyph name="seen_heh-ar.medi" format="2">
	<advance width="1100"/>
	<outline>
		<contour>
			<point x="-10" y="-241" type="line"/>
			<point x="1100" y="-241" type="line"/>
			<point x="1100" y="382" type="line"/>
			<point x="-10" y="382" type="line"/>
		</contour>
		<contour>
			<point x="-10" y="-241" type="line"/>
			<point x="1100" y="-241" type="line"/>
			<point x="1100" y="382" type="line"/>
			<point x="-10" y="382" type="line"/>
		</contour>
	</outline>
	<anchor name="bottom_1" x="745" y="0"/>
	<anchor name="bottom_2" x="188" y="-225"/>
	<anchor name="top_1" x="688" y="330"/>
	<anchor name="top_2" x="148" y="330"/>
</glyph>
<glyph name="seen_meem-ar.fina" format="2">
	<advance width="1473"/>
	<outline>
		<contour>
			<point x="25" y="-204" type="line"/>
			<point x="1473" y="-204" type="line"/>
			<point x="1473" y="382" type="line"/>
			<point x="25" y="382" type="line"/>
		</contour>
		<contour>
			<point x="25" y="-204" type="line"/>
			<point x="1473" y="-204" type="line"/>
			<point x="1473" y="382" type="line"/>
			<point x="25" y="382" type="line"/>
		</contour>
		<contour>
			<point x="25" y="-204" type="line"/>
			<point x="1473" y="-204" type="line"/>
			<point x="1473" y="382" type="line"/>
			<point x="25" y="382" type="line"/>
		</contour>
	</outline>
</glyph>
<glyph name="seen_meem-ar" format="2">
	<advance width="1390"/>
	<outline>
		<contour>
			<point x="25" y="-204" type="line"/>
			<point x="1365" y="-204" type="line"/>
			<point x="1365" y="440" type="line"/>
			<point x="25" y="440" type="line"/>
		</contour>
		<contour>
			<point x="25" y="-204" type="line"/>
			<point x="1365" y="-204" type="line"/>
			<point x="1365" y="440" type="line"/>
			<point x="25" y="440" type="line"/>
		</contour>
		<contour>
			<point x="25" y="-204" type="line"/>
			<point x="1365" y="-204" type="line"/>
			<point x="1365" y="440" type="line"/>
			<point x="25" y="440" type="line"/>
		</contour>
	</outline>
	<anchor name="bottom_1" x="1101" y="0"/>
	<anchor name="bottom_2" x="652" y="-204"/>
	<anchor name="top_1" x="1061" y="330"/>
	<anchor name="top_2" x="488" y="260"/>
</glyph>
<glyph name="seen_meem-ar.init" format="2">
	<advance width="932"/>
	<outline>
		<contour>
			<point x="-10" y="-204" type="line"/>
			<point x="907" y="-204" type="line"/>
			<point x="907" y="440" type="line"/>
			<point x="-10" y="440" type="line"/>
		</contour>
		<contour>
			<point x="-10" y="-204" type="line"/>
			<point x="907" y="-204" type="line"/>
			<point x="907" y="440" type="line"/>
			<point x="-10" y="440" type="line"/>
		</contour>
		<contour>
			<point x="-10" y="-204" type="line"/>
			<point x="907" y="-204" type="line"/>
			<point x="907" y="440" type="line"/>
			<point x="-10" y="440" type="line"/>
		</contour>
	</outline>
</glyph>
<glyph name="seen_meem-ar.medi" format="2">
	<advance width="1015"/>
	<outline>
		<contour>
			<point x="-10" y="-204" type="line"/>
			<point x="1015" y="-204" type="line"/>
			<point x="1015" y="382" type="line"/>
			<point x="-10" y="382" type="line"/>
		</contour>
		<contour>
			<point x="-10" y="-204" type="line"/>
			<point x="1015" y="-204" type="line"/>
			<point x="1015" y="382" type="line"/>
			<point x="-10" y="382" type="line"/>
		</contour>
		<contour>
			<point x="-10" y="-204" type="line"/>
			<point x="1015" y="-204" type="line"/>
			<point x="1015" y="382" type="line"/>
			<point x="-10" y="382" type="line"/>
		</contour>
	</outline>
</glyph>
<glyph name="seen_reh-ar.fina.rlig" format="2">
	<advance width="1107"/>
	<outline>
		<contour>
			<point x="-100" y="-225" type="line"/>
			<point x="1107" y="-225" type="line"/>
			<point x="1107" y="382" type="line"/>
			<point x="-100" y="382" type="line"/>
		</contour>
		<contour>
			<point x="-100" y="-225" type="line"/>
			<point x="1107" y="-225" type="line"/>
			<point x="1107" y="382" type="line"/>
			<point x="-100" y="382" type="line"/>
		</contour>
	</outline>
</glyph>
<glyph name="seen_reh-ar.rlig" format="2">
	<advance width="1024"/>
	<outline>
		<contour>
			<point x="-100" y="-225" type="line"/>
			<point x="999" y="-225" type="line"/>
			<point x="999" y="440" type="line"/>
			<point x="-100" y="440" type="line"/>
		</contour>
		<contour>
			<point x="-100" y="-225" type="line"/>
			<point x="999" y="-225" type="line"/>
			<point x="999" y="440" type="line"/>
			<point x="-100" y="440" type="line"/>
		</contour>
	</outline>
	<anchor name="bottom_1" x="752" y="0"/>
	<anchor name="bottom_2" x="162" y="-225"/>
	<anchor name="top_1" x="695" y="330"/>
	<anchor name="top_2" x="199" y="334"/>
</glyph>
<glyph name="sevenFarsi-ar.urdu" format="2">
	<advance width="467"/>
	<outline>
		<contour>
			<point x="25" y="0" type="line"/>
			<point x="477" y="0" type="line"/>
			<point x="477" y="705" type="line"/>
			<point x="25" y="705" type="line"/>
		</contour>
	</outline>
</glyph>
<glyph name="tah-ar.fina" format="2">
	<advance width="890"/>
	<outline>
		<contour>
			<point x="10" y="0" type="line"/>
			<point x="890" y="0" type="line"/>
			<point x="890" y="779" type="line"/>
			<point x="10" y="779" type="line"/>
		</contour>
		<contour>
			<point x="10" y="0" type="line"/>
			<point x="890" y="0" type="line"/>
			<point x="890" y="779" type="line"/>
			<point x="10" y="779" type="line"/>
		</contour>
		<component base="tah-ar"/>
	</outline>
</glyph>
<glyph name="tah-ar.init" format="2">
	<advance width="668"/>
	<outline>
		<contour>
			<point x="-10" y="0" type="line"/>
			<point x="628" y="0" type="line"/>
			<point x="628" y="779" type="line"/>
			<point x="-10" y="779" type="line"/>
		</contour>
	</outline>
</glyph>
<glyph name="tah-ar.medi" format="2">
	<advance width="688"/>
	<outline>
		<contour>
			<point x="-10" y="0" type="line"/>
			<point x="688" y="0" type="line"/>
			<point x="688" y="779" type="line"/>
			<point x="-10" y="779" type="line"/>
		</contour>
		<contour>
			<point x="-10" y="0" type="line"/>
			<point x="688" y="0" type="line"/>
			<point x="688" y="779" type="line"/>
			<point x="-10" y="779" type="line"/>
		</contour>
		<component base="tah-ar.init"/>
	</outline>
</glyph>
<glyph name="threedotsdownbelow-ar" format="2">
	<outline>
		<contour>
			<point x="-12" y="-99" type="line"/>
			<point x="296" y="-99" type="line"/>
			<point x="296" y="212" type="line"/>
			<point x="-12" y="212" type="line"/>
		</contour>
		<contour>
			<point x="-12" y="-99" type="line"/>
			<point x="296" y="-99" type="line"/>
			<point x="296" y="212" type="line"/>
			<point x="-12" y="212" type="line"/>
		</contour>
		<contour>
			<point x="-12" y="-99" type="line"/>
			<point x="296" y="-99" type="line"/>
			<point x="296" y="212" type="line"/>
			<point x="-12" y="212" type="line"/>
		</contour>
		<component base="dot-ar" xOffset="142"/>
		<component base="dot-ar"/>
	</outline>
	<anchor name="_bottom" x="142" y="270"/>
	<anchor name="bottom" x="142" y="-59"/>
</glyph>
<glyph name="threedotsdowncenter-ar" format="2">
	<outline>
		<contour>
			<point x="-12" y="-99" type="line"/>
			<point x="296" y="-99" type="line"/>
			<point x="296" y="212" type="line"/>
			<point x="-12" y="212" type="line"/>
		</contour>
		<contour>
			<point x="-12" y="-99" type="line"/>
			<point x="296" y="-99" type="line"/>
			<point x="296" y="212" type="line"/>
			<point x="-12" y="212" type="line"/>
		</contour>
		<contour>
			<point x="-12" y="-99" type="line"/>
			<point x="296" y="-99" type="line"/>
			<point x="296" y="212" type="line"/>
			<point x="-12" y="212" type="line"/>
		</contour>
		<component base="dot-ar" xOffset="142"/>
		<component base="dot-ar"/>
	</outline>
</glyph>
<glyph name="threedotsupabove-ar" format="2">
	<outline>
		<contour>
			<point x="-12" y="46" type="line"/>
			<point x="296" y="46" type="line"/>
			<point x="296" y="357" type="line"/>
			<point x="-12" y="357" type="line"/>
		</contour>
		<contour>
			<point x="-12" y="46" type="line"/>
			<point x="296" y="46" type="line"/>
			<point x="296" y="357" type="line"/>
			<point x="-12" y="357" type="line"/>
		</contour>
		<contour>
			<point x="-12" y="46" type="line"/>
			<point x="296" y="46" type="line"/>
			<point x="296" y="357" type="line"/>
			<point x="-12" y="357" type="line"/>
		</contour>
		<component base="dot-ar" xOffset="142"/>
		<component base="dot-ar"/>
	</outline>
</glyph>
<glyph name="twodotsverticalabove-ar" format="2">
	<outline>
		<contour>
			<point x="-12" y="46" type="line"/>
			<point x="155" y="46" type="line"/>
			<point x="155" y="354" type="line"/>
			<point x="-12" y="354" type="line"/>
		</contour>
		<contour>
			<point x="-12" y="46" type="line"/>
			<point x="155" y="46" type="line"/>
			<point x="155" y="354" type="line"/>
			<point x="-12" y="354" type="line"/>
		</contour>
	</outline>
</glyph>
<glyph name="twodotsverticalbelow-ar" format="2">
	<outline>
		<contour>
			<point x="-13" y="-96" type="line"/>
			<point x="154" y="-96" type="line"/>
			<point x="154" y="212" type="line"/>
			<point x="-13" y="212" type="line"/>
		</contour>
		<contour>
			<point x="-13" y="-96" type="line"/>
			<point x="154" y="-96" type="line"/>
			<point x="154" y="212" type="line"/>
			<point x="-13" y="212" type="line"/>
		</contour>
	</outline>
</glyph>
<glyph name="vbelow-ar" format="2">
	<outline>
		<contour>
			<point x="20" y="50" type="line"/>
			<point x="192" y="50" type="line"/>
			<point x="192" y="260" type="line"/>
			<point x="20" y="260" type="line"/>
		</contour>
	</outline>
	<anchor name="_bottom" x="106" y="310"/>
</glyph>
<glyph name="wasla-ar" format="2">
	<outline>
		<contour>
			<point x="38" y="36" type="line"/>
			<point x="239" y="36" type="line"/>
			<point x="239" y="247" type="line"/>
			<point x="38" y="247" type="line"/>
		</contour>
	</outline>
	<anchor name="_top" x="132" y="0"/>
	<anchor name="top" x="132" y="207"/>
</glyph>
<glyph name="waw-ar.fina" format="2">
	<advance width="431"/>
	<outline>
		<contour>
			<point x="-24" y="-262" type="line"/>
			<point x="431" y="-262" type="line"/>
			<point x="431" y="485" type="line"/>
			<point x="-24" y="485" type="line"/>
		</contour>
	</outline>
</glyph>
<glyph name="yehbarree-ar.fina" format="2">
	<advance width="697"/>
	<outline>
		<contour>
			<point x="20" y="-290" type="line"/>
			<point x="767" y="-290" type="line"/>
			<point x="767" y="200" type="line"/>
			<point x="20" y="200" type="line"/>
		</contour>
	</outline>
</glyph>
